<?xml version="1.0" encoding="UTF-8" standalone="no"?>
<!DOCTYPE svg PUBLIC "-//W3C//DTD SVG 1.1//EN"
 "http://www.w3.org/Graphics/SVG/1.1/DTD/svg11.dtd">
<!-- Generated by graphviz version 2.46.1 (20210213.1702)
 -->
<!-- Title: classes Pages: 1 -->
<svg width="619pt" height="409pt"
 viewBox="0.00 0.00 619.00 409.00" xmlns="http://www.w3.org/2000/svg" xmlns:xlink="http://www.w3.org/1999/xlink">
<g id="graph0" class="graph" transform="scale(1 1) rotate(0) translate(4 405)">
<title>classes</title>
<polygon fill="white" stroke="transparent" points="-4,4 -4,-405 615,-405 615,4 -4,4"/>
<!-- 0 -->
<g id="node1" class="node">
<title>0</title>
<polygon fill="none" stroke="black" points="0,-263.5 0,-348.5 215,-348.5 215,-263.5 0,-263.5"/>
<text text-anchor="middle" x="107.5" y="-333.3" font-family="Times New Roman,serif" font-size="14.00">PrintInfoMixin</text>
<polyline fill="none" stroke="black" points="0,-325.5 215,-325.5 "/>
<polyline fill="none" stroke="black" points="0,-301.5 215,-301.5 "/>
<text text-anchor="start" x="8" y="-286.3" font-family="Times New Roman,serif" font-size="14.00">(abc.abstractmethod) get_proplist()</text>
<text text-anchor="start" x="8" y="-271.3" font-family="Times New Roman,serif" font-size="14.00">__str__()</text>
</g>
<!-- 1 -->
<g id="node2" class="node">
<title>1</title>
<polygon fill="none" stroke="black" points="81,-45 81,-115 184,-115 184,-45 81,-45"/>
<text text-anchor="middle" x="132.5" y="-99.8" font-family="Times New Roman,serif" font-size="14.00">PrintableObject</text>
<polyline fill="none" stroke="black" points="81,-92 184,-92 "/>
<polyline fill="none" stroke="black" points="81,-68 184,-68 "/>
<text text-anchor="middle" x="132.5" y="-52.8" font-family="Times New Roman,serif" font-size="14.00"> </text>
</g>
<!-- 1&#45;&gt;0 -->
<g id="edge1" class="edge">
<title>1&#45;&gt;0</title>
<path fill="none" stroke="black" d="M128.7,-115.02C124.6,-151.77 118.02,-210.75 113.28,-253.25"/>
<polygon fill="none" stroke="black" points="109.77,-253.08 112.14,-263.4 116.73,-253.85 109.77,-253.08"/>
</g>
<!-- 4 -->
<g id="node5" class="node">
<title>4</title>
<polygon fill="none" stroke="black" points="233.5,-211.5 233.5,-400.5 495.5,-400.5 495.5,-211.5 233.5,-211.5"/>
<text text-anchor="middle" x="364.5" y="-385.3" font-family="Times New Roman,serif" font-size="14.00">Object</text>
<polyline fill="none" stroke="black" points="233.5,-377.5 495.5,-377.5 "/>
<text text-anchor="start" x="241.5" y="-362.3" font-family="Times New Roman,serif" font-size="14.00">(class) modifiable_properties : tuple[str]</text>
<text text-anchor="start" x="241.5" y="-347.3" font-family="Times New Roman,serif" font-size="14.00">name : str</text>
<text text-anchor="start" x="241.5" y="-332.3" font-family="Times New Roman,serif" font-size="14.00">property_set</text>
<polyline fill="none" stroke="black" points="233.5,-324.5 495.5,-324.5 "/>
<text text-anchor="start" x="241.5" y="-309.3" font-family="Times New Roman,serif" font-size="14.00">get_property(k, v_f=None)</text>
<text text-anchor="start" x="241.5" y="-294.3" font-family="Times New Roman,serif" font-size="14.00">get_proplist()</text>
<text text-anchor="start" x="241.5" y="-279.3" font-family="Times New Roman,serif" font-size="14.00">change_params(_filter=True, **kwargs)</text>
<text text-anchor="start" x="241.5" y="-264.3" font-family="Times New Roman,serif" font-size="14.00"> (classmethod) filter_properties(**propdict)</text>
<text text-anchor="start" x="241.5" y="-249.3" font-family="Times New Roman,serif" font-size="14.00">preprocess_properties(**propdict)</text>
<text text-anchor="start" x="241.5" y="-234.3" font-family="Times New Roman,serif" font-size="14.00"> update_propset(**propdict)</text>
<text text-anchor="start" x="241.5" y="-219.3" font-family="Times New Roman,serif" font-size="14.00">postprocess_properties(**propdict)</text>
</g>
<!-- 1&#45;&gt;4 -->
<g id="edge2" class="edge">
<title>1&#45;&gt;4</title>
<path fill="none" stroke="black" d="M167.74,-115.02C192.42,-138.86 226.8,-172.05 259.93,-204.03"/>
<polygon fill="none" stroke="black" points="257.79,-206.84 267.42,-211.27 262.65,-201.8 257.79,-206.84"/>
</g>
<!-- 2 -->
<g id="node3" class="node">
<title>2</title>
<polygon fill="none" stroke="black" points="520,-45 520,-115 611,-115 611,-45 520,-45"/>
<text text-anchor="middle" x="565.5" y="-99.8" font-family="Times New Roman,serif" font-size="14.00" fill="red">PropertyLost</text>
<polyline fill="none" stroke="black" points="520,-92 611,-92 "/>
<polyline fill="none" stroke="black" points="520,-68 611,-68 "/>
<text text-anchor="middle" x="565.5" y="-52.8" font-family="Times New Roman,serif" font-size="14.00" fill="red"> </text>
</g>
<!-- 3 -->
<g id="node4" class="node">
<title>3</title>
<polygon fill="none" stroke="black" points="227.5,-0.5 227.5,-159.5 501.5,-159.5 501.5,-0.5 227.5,-0.5"/>
<text text-anchor="middle" x="364.5" y="-144.3" font-family="Times New Roman,serif" font-size="14.00">PropertySet</text>
<polyline fill="none" stroke="black" points="227.5,-136.5 501.5,-136.5 "/>
<text text-anchor="start" x="235.5" y="-121.3" font-family="Times New Roman,serif" font-size="14.00">__required_props: set[str]</text>
<polyline fill="none" stroke="black" points="227.5,-113.5 501.5,-113.5 "/>
<text text-anchor="start" x="235.5" y="-98.3" font-family="Times New Roman,serif" font-size="14.00">__init__(required_props=(), *args, **kwargs)</text>
<text text-anchor="start" x="235.5" y="-83.3" font-family="Times New Roman,serif" font-size="14.00">get_strictly(key, default=None)</text>
<text text-anchor="start" x="235.5" y="-68.3" font-family="Times New Roman,serif" font-size="14.00">change_params(**kwargs)</text>
<text text-anchor="start" x="235.5" y="-53.3" font-family="Times New Roman,serif" font-size="14.00"> reset_required(Union[tuple[str],str] props=())</text>
<text text-anchor="start" x="235.5" y="-38.3" font-family="Times New Roman,serif" font-size="14.00">add_required(props=())</text>
<text text-anchor="start" x="235.5" y="-23.3" font-family="Times New Roman,serif" font-size="14.00">del_required(props=())</text>
<text text-anchor="start" x="235.5" y="-8.3" font-family="Times New Roman,serif" font-size="14.00">clear_required()</text>
</g>
<!-- 3&#45;&gt;4 -->
<g id="edge3" class="edge">
<title>3&#45;&gt;4</title>
<path fill="none" stroke="black" d="M364.5,-159.66C364.5,-172.4 364.5,-185.77 364.5,-199.03"/>
<polygon fill="black" stroke="black" points="364.5,-199.16 368.5,-205.16 364.5,-211.16 360.5,-205.16 364.5,-199.16"/>
<text text-anchor="middle" x="400.5" y="-181.8" font-family="Times New Roman,serif" font-size="14.00" fill="green">property_set</text>
</g>
</g>
</svg>
