<?xml version="1.0" encoding="UTF-8" standalone="no"?>
<!DOCTYPE svg PUBLIC "-//W3C//DTD SVG 1.1//EN"
 "http://www.w3.org/Graphics/SVG/1.1/DTD/svg11.dtd">
<!-- Generated by graphviz version 2.46.1 (20210213.1702)
 -->
<!-- Title: packages Pages: 1 -->
<svg width="389pt" height="332pt"
 viewBox="0.00 0.00 389.41 332.00" xmlns="http://www.w3.org/2000/svg" xmlns:xlink="http://www.w3.org/1999/xlink">
<g id="graph0" class="graph" transform="scale(1 1) rotate(0) translate(4 328)">
<title>packages</title>
<polygon fill="white" stroke="transparent" points="-4,4 -4,-328 385.41,-328 385.41,4 -4,4"/>
<!-- 1 -->
<g id="node1" class="node">
<title>1</title>
<polygon fill="none" stroke="black" points="114.91,-324 31.91,-324 31.91,-288 114.91,-288 114.91,-324"/>
<text text-anchor="middle" x="73.41" y="-302.3" font-family="Times New Roman,serif" font-size="14.00">cavag._utils</text>
</g>
<!-- 3 -->
<g id="node2" class="node">
<title>3</title>
<polygon fill="none" stroke="black" points="381.41,-36 247.41,-36 247.41,0 381.41,0 381.41,-36"/>
<text text-anchor="middle" x="314.41" y="-14.3" font-family="Times New Roman,serif" font-size="14.00">cavag.extension.fcqs</text>
</g>
<!-- 4 -->
<g id="node3" class="node">
<title>4</title>
<polygon fill="none" stroke="black" points="302.41,-180 224.41,-180 224.41,-144 302.41,-144 302.41,-180"/>
<text text-anchor="middle" x="263.41" y="-158.3" font-family="Times New Roman,serif" font-size="14.00">cavag.fiber</text>
</g>
<!-- 8 -->
<g id="node7" class="node">
<title>8</title>
<polygon fill="none" stroke="black" points="197.91,-252 118.91,-252 118.91,-216 197.91,-216 197.91,-252"/>
<text text-anchor="middle" x="158.41" y="-230.3" font-family="Times New Roman,serif" font-size="14.00">cavag.misc</text>
</g>
<!-- 4&#45;&gt;8 -->
<g id="edge1" class="edge">
<title>4&#45;&gt;8</title>
<path fill="none" stroke="black" d="M237.73,-180.12C224.12,-189.19 207.24,-200.45 192.55,-210.24"/>
<polygon fill="black" stroke="black" points="184.2,-215.81 190.02,-206.52 188.36,-213.04 192.52,-210.26 192.52,-210.26 192.52,-210.26 188.36,-213.04 195.01,-214.01 184.2,-215.81 184.2,-215.81"/>
</g>
<!-- 5 -->
<g id="node4" class="node">
<title>5</title>
<polygon fill="none" stroke="black" points="126.41,-108 28.41,-108 28.41,-72 126.41,-72 126.41,-108"/>
<text text-anchor="middle" x="77.41" y="-86.3" font-family="Times New Roman,serif" font-size="14.00">cavag.fpcavity</text>
</g>
<!-- 5&#45;&gt;1 -->
<g id="edge2" class="edge">
<title>5&#45;&gt;1</title>
<path fill="none" stroke="black" d="M42.73,-108.17C29.1,-116.87 14.94,-128.85 7.41,-144 -15.9,-190.88 22.6,-248.08 49.91,-280.13"/>
<polygon fill="black" stroke="black" points="56.56,-287.72 46.59,-283.17 53.27,-283.96 49.97,-280.2 49.97,-280.2 49.97,-280.2 53.27,-283.96 53.35,-277.24 56.56,-287.72 56.56,-287.72"/>
</g>
<!-- 6 -->
<g id="node5" class="node">
<title>6</title>
<polygon fill="none" stroke="black" points="130.41,-180 16.41,-180 16.41,-144 130.41,-144 130.41,-180"/>
<text text-anchor="middle" x="73.41" y="-158.3" font-family="Times New Roman,serif" font-size="14.00">cavag.gaussbeam</text>
</g>
<!-- 5&#45;&gt;6 -->
<g id="edge3" class="edge">
<title>5&#45;&gt;6</title>
<path fill="none" stroke="black" d="M76.42,-108.3C75.98,-116.02 75.45,-125.29 74.96,-133.89"/>
<polygon fill="black" stroke="black" points="74.39,-143.9 70.47,-133.66 74.67,-138.9 74.96,-133.91 74.96,-133.91 74.96,-133.91 74.67,-138.9 79.45,-134.17 74.39,-143.9 74.39,-143.9"/>
</g>
<!-- 5&#45;&gt;8 -->
<g id="edge4" class="edge">
<title>5&#45;&gt;8</title>
<path fill="none" stroke="black" d="M104.59,-108.08C117.02,-117.26 130.86,-129.64 139.41,-144 150.56,-162.73 155.21,-187.11 157.13,-205.62"/>
<polygon fill="black" stroke="black" points="157.97,-215.75 152.66,-206.16 157.56,-210.77 157.14,-205.78 157.14,-205.78 157.14,-205.78 157.56,-210.77 161.63,-205.41 157.97,-215.75 157.97,-215.75"/>
</g>
<!-- 6&#45;&gt;8 -->
<g id="edge5" class="edge">
<title>6&#45;&gt;8</title>
<path fill="none" stroke="black" d="M94.42,-180.3C105.13,-189.12 118.3,-199.97 129.91,-209.53"/>
<polygon fill="black" stroke="black" points="137.64,-215.9 127.06,-213.01 133.78,-212.72 129.92,-209.54 129.92,-209.54 129.92,-209.54 133.78,-212.72 132.78,-206.06 137.64,-215.9 137.64,-215.9"/>
</g>
<!-- 7 -->
<g id="node6" class="node">
<title>7</title>
<polygon fill="none" stroke="black" points="234.91,-108 147.91,-108 147.91,-72 234.91,-72 234.91,-108"/>
<text text-anchor="middle" x="191.41" y="-86.3" font-family="Times New Roman,serif" font-size="14.00">cavag.mirror</text>
</g>
<!-- 7&#45;&gt;8 -->
<g id="edge6" class="edge">
<title>7&#45;&gt;8</title>
<path fill="none" stroke="black" d="M188.01,-108.12C184.38,-126.08 178.35,-155.1 172.41,-180 170.39,-188.46 168.03,-197.64 165.83,-205.94"/>
<polygon fill="black" stroke="black" points="163.16,-215.87 161.41,-205.04 164.46,-211.04 165.75,-206.21 165.75,-206.21 165.75,-206.21 164.46,-211.04 170.1,-207.38 163.16,-215.87 163.16,-215.87"/>
</g>
<!-- 8&#45;&gt;1 -->
<g id="edge7" class="edge">
<title>8&#45;&gt;1</title>
<path fill="none" stroke="black" d="M137.4,-252.3C126.7,-261.12 113.52,-271.97 101.92,-281.53"/>
<polygon fill="black" stroke="black" points="94.18,-287.9 99.04,-278.06 98.04,-284.72 101.9,-281.54 101.9,-281.54 101.9,-281.54 98.04,-284.72 104.76,-285.01 94.18,-287.9 94.18,-287.9"/>
</g>
<!-- 9 -->
<g id="node8" class="node">
<title>9</title>
<polygon fill="none" stroke="black" points="228.91,-36 153.91,-36 153.91,0 228.91,0 228.91,-36"/>
<text text-anchor="middle" x="191.41" y="-14.3" font-family="Times New Roman,serif" font-size="14.00">cavag.utils</text>
</g>
<!-- 9&#45;&gt;4 -->
<g id="edge8" class="edge">
<title>9&#45;&gt;4</title>
<path fill="none" stroke="black" d="M213.81,-36.13C224.64,-45.57 236.89,-58.17 244.41,-72 254.82,-91.15 259.53,-115.5 261.66,-133.89"/>
<polygon fill="black" stroke="black" points="262.64,-143.94 257.19,-134.42 262.15,-138.96 261.67,-133.99 261.67,-133.99 261.67,-133.99 262.15,-138.96 266.14,-133.55 262.64,-143.94 262.64,-143.94"/>
</g>
<!-- 9&#45;&gt;5 -->
<g id="edge9" class="edge">
<title>9&#45;&gt;5</title>
<path fill="none" stroke="black" d="M163.52,-36.12C148.62,-45.28 130.08,-56.66 114.03,-66.52"/>
<polygon fill="black" stroke="black" points="105.41,-71.81 111.57,-62.74 109.67,-69.19 113.93,-66.58 113.93,-66.58 113.93,-66.58 109.67,-69.19 116.28,-70.41 105.41,-71.81 105.41,-71.81"/>
</g>
<!-- 9&#45;&gt;7 -->
<g id="edge10" class="edge">
<title>9&#45;&gt;7</title>
<path fill="none" stroke="black" d="M191.41,-36.3C191.41,-44.02 191.41,-53.29 191.41,-61.89"/>
<polygon fill="black" stroke="black" points="191.41,-71.9 186.91,-61.9 191.41,-66.9 191.41,-61.9 191.41,-61.9 191.41,-61.9 191.41,-66.9 195.91,-61.9 191.41,-71.9 191.41,-71.9"/>
</g>
</g>
</svg>
