<?xml version="1.0" encoding="UTF-8" standalone="no"?>
<!DOCTYPE svg PUBLIC "-//W3C//DTD SVG 1.1//EN"
 "http://www.w3.org/Graphics/SVG/1.1/DTD/svg11.dtd">
<!-- Generated by graphviz version 2.46.1 (20210213.1702)
 -->
<!-- Title: packages Pages: 1 -->
<svg width="373pt" height="332pt"
 viewBox="0.00 0.00 372.58 332.00" xmlns="http://www.w3.org/2000/svg" xmlns:xlink="http://www.w3.org/1999/xlink">
<g id="graph0" class="graph" transform="scale(1 1) rotate(0) translate(4 328)">
<title>packages</title>
<polygon fill="white" stroke="transparent" points="-4,4 -4,-328 368.58,-328 368.58,4 -4,4"/>
<!-- 1 -->
<g id="node1" class="node">
<title>1</title>
<polygon fill="none" stroke="black" points="105.08,-324 22.08,-324 22.08,-288 105.08,-288 105.08,-324"/>
<text text-anchor="middle" x="63.58" y="-302.3" font-family="Times New Roman,serif" font-size="14.00">cavag._utils</text>
</g>
<!-- 3 -->
<g id="node2" class="node">
<title>3</title>
<polygon fill="none" stroke="black" points="364.58,-36 230.58,-36 230.58,0 364.58,0 364.58,-36"/>
<text text-anchor="middle" x="297.58" y="-14.3" font-family="Times New Roman,serif" font-size="14.00">cavag.extension.fcqs</text>
</g>
<!-- 4 -->
<g id="node3" class="node">
<title>4</title>
<polygon fill="none" stroke="black" points="284.58,-180 206.58,-180 206.58,-144 284.58,-144 284.58,-180"/>
<text text-anchor="middle" x="245.58" y="-158.3" font-family="Times New Roman,serif" font-size="14.00">cavag.fiber</text>
</g>
<!-- 8 -->
<g id="node7" class="node">
<title>8</title>
<polygon fill="none" stroke="black" points="179.08,-252 100.08,-252 100.08,-216 179.08,-216 179.08,-252"/>
<text text-anchor="middle" x="139.58" y="-230.3" font-family="Times New Roman,serif" font-size="14.00">cavag.misc</text>
</g>
<!-- 4&#45;&gt;8 -->
<g id="edge1" class="edge">
<title>4&#45;&gt;8</title>
<path fill="none" stroke="black" d="M219.65,-180.12C205.92,-189.19 188.88,-200.45 174.05,-210.24"/>
<polygon fill="black" stroke="black" points="165.61,-215.81 171.48,-206.54 169.78,-213.05 173.96,-210.3 173.96,-210.3 173.96,-210.3 169.78,-213.05 176.44,-214.05 165.61,-215.81 165.61,-215.81"/>
</g>
<!-- 5 -->
<g id="node4" class="node">
<title>5</title>
<polygon fill="none" stroke="black" points="112.58,-108 14.58,-108 14.58,-72 112.58,-72 112.58,-108"/>
<text text-anchor="middle" x="63.58" y="-86.3" font-family="Times New Roman,serif" font-size="14.00">cavag.fpcavity</text>
</g>
<!-- 5&#45;&gt;1 -->
<g id="edge2" class="edge">
<title>5&#45;&gt;1</title>
<path fill="none" stroke="black" d="M37,-108.09C25.35,-117.19 12.9,-129.51 6.58,-144 -13.86,-190.91 19.17,-247.74 42.86,-279.8"/>
<polygon fill="black" stroke="black" points="48.94,-287.77 39.3,-282.55 45.91,-283.8 42.88,-279.82 42.88,-279.82 42.88,-279.82 45.91,-283.8 46.45,-277.09 48.94,-287.77 48.94,-287.77"/>
</g>
<!-- 6 -->
<g id="node5" class="node">
<title>6</title>
<polygon fill="none" stroke="black" points="111.58,-180 15.58,-180 15.58,-144 111.58,-144 111.58,-180"/>
<text text-anchor="middle" x="63.58" y="-158.3" font-family="Times New Roman,serif" font-size="14.00">cavag.hgbeam</text>
</g>
<!-- 5&#45;&gt;6 -->
<g id="edge3" class="edge">
<title>5&#45;&gt;6</title>
<path fill="none" stroke="black" d="M63.58,-108.3C63.58,-116.02 63.58,-125.29 63.58,-133.89"/>
<polygon fill="black" stroke="black" points="63.58,-143.9 59.08,-133.9 63.58,-138.9 63.58,-133.9 63.58,-133.9 63.58,-133.9 63.58,-138.9 68.08,-133.9 63.58,-143.9 63.58,-143.9"/>
</g>
<!-- 5&#45;&gt;8 -->
<g id="edge4" class="edge">
<title>5&#45;&gt;8</title>
<path fill="none" stroke="black" d="M87.98,-108.04C99.56,-117.37 112.58,-129.9 120.58,-144 131.34,-162.95 136.02,-187.32 138.05,-205.76"/>
<polygon fill="black" stroke="black" points="138.96,-215.85 133.58,-206.3 138.51,-210.87 138.06,-205.89 138.06,-205.89 138.06,-205.89 138.51,-210.87 142.54,-205.49 138.96,-215.85 138.96,-215.85"/>
</g>
<!-- 6&#45;&gt;8 -->
<g id="edge5" class="edge">
<title>6&#45;&gt;8</title>
<path fill="none" stroke="black" d="M82.37,-180.3C91.76,-188.95 103.27,-199.55 113.5,-208.97"/>
<polygon fill="black" stroke="black" points="121.01,-215.9 110.61,-212.43 117.33,-212.51 113.66,-209.12 113.66,-209.12 113.66,-209.12 117.33,-212.51 116.7,-205.81 121.01,-215.9 121.01,-215.9"/>
</g>
<!-- 7 -->
<g id="node6" class="node">
<title>7</title>
<polygon fill="none" stroke="black" points="218.08,-108 131.08,-108 131.08,-72 218.08,-72 218.08,-108"/>
<text text-anchor="middle" x="174.58" y="-86.3" font-family="Times New Roman,serif" font-size="14.00">cavag.mirror</text>
</g>
<!-- 7&#45;&gt;8 -->
<g id="edge6" class="edge">
<title>7&#45;&gt;8</title>
<path fill="none" stroke="black" d="M170.69,-108.09C166.57,-126.04 159.82,-155.05 153.58,-180 151.47,-188.44 149.08,-197.61 146.89,-205.91"/>
<polygon fill="black" stroke="black" points="144.24,-215.84 142.47,-205.02 145.53,-211.01 146.81,-206.18 146.81,-206.18 146.81,-206.18 145.53,-211.01 151.16,-207.34 144.24,-215.84 144.24,-215.84"/>
</g>
<!-- 8&#45;&gt;1 -->
<g id="edge7" class="edge">
<title>8&#45;&gt;1</title>
<path fill="none" stroke="black" d="M120.8,-252.3C111.41,-260.95 99.9,-271.55 89.67,-280.97"/>
<polygon fill="black" stroke="black" points="82.15,-287.9 86.46,-277.81 85.83,-284.51 89.51,-281.12 89.51,-281.12 89.51,-281.12 85.83,-284.51 92.56,-284.43 82.15,-287.9 82.15,-287.9"/>
</g>
<!-- 9 -->
<g id="node8" class="node">
<title>9</title>
<polygon fill="none" stroke="black" points="212.08,-36 137.08,-36 137.08,0 212.08,0 212.08,-36"/>
<text text-anchor="middle" x="174.58" y="-14.3" font-family="Times New Roman,serif" font-size="14.00">cavag.utils</text>
</g>
<!-- 9&#45;&gt;4 -->
<g id="edge8" class="edge">
<title>9&#45;&gt;4</title>
<path fill="none" stroke="black" d="M197.04,-36.1C207.89,-45.53 220.14,-58.13 227.58,-72 237.86,-91.16 242.29,-115.51 244.19,-133.89"/>
<polygon fill="black" stroke="black" points="245.04,-143.95 239.71,-134.36 244.62,-138.96 244.2,-133.98 244.2,-133.98 244.2,-133.98 244.62,-138.96 248.68,-133.6 245.04,-143.95 245.04,-143.95"/>
</g>
<!-- 9&#45;&gt;5 -->
<g id="edge9" class="edge">
<title>9&#45;&gt;5</title>
<path fill="none" stroke="black" d="M147.43,-36.12C133.05,-45.19 115.2,-56.45 99.67,-66.24"/>
<polygon fill="black" stroke="black" points="90.84,-71.81 96.9,-62.67 95.07,-69.14 99.3,-66.48 99.3,-66.48 99.3,-66.48 95.07,-69.14 101.7,-70.28 90.84,-71.81 90.84,-71.81"/>
</g>
<!-- 9&#45;&gt;7 -->
<g id="edge10" class="edge">
<title>9&#45;&gt;7</title>
<path fill="none" stroke="black" d="M174.58,-36.3C174.58,-44.02 174.58,-53.29 174.58,-61.89"/>
<polygon fill="black" stroke="black" points="174.58,-71.9 170.08,-61.9 174.58,-66.9 174.58,-61.9 174.58,-61.9 174.58,-61.9 174.58,-66.9 179.08,-61.9 174.58,-71.9 174.58,-71.9"/>
</g>
</g>
</svg>
