<?xml version="1.0" encoding="UTF-8" standalone="no"?>
<!DOCTYPE svg PUBLIC "-//W3C//DTD SVG 1.1//EN"
 "http://www.w3.org/Graphics/SVG/1.1/DTD/svg11.dtd">
<!-- Generated by graphviz version 2.46.1 (20210213.1702)
 -->
<!-- Title: packages_cavag Pages: 1 -->
<svg width="288pt" height="332pt"
 viewBox="0.00 0.00 288.00 332.00" xmlns="http://www.w3.org/2000/svg" xmlns:xlink="http://www.w3.org/1999/xlink">
<g id="graph0" class="graph" transform="scale(1 1) rotate(0) translate(4 328)">
<title>packages_cavag</title>
<polygon fill="white" stroke="transparent" points="-4,4 -4,-328 284,-328 284,4 -4,4"/>
<!-- 1 -->
<g id="node1" class="node">
<title>1</title>
<polygon fill="none" stroke="black" points="90.5,-324 7.5,-324 7.5,-288 90.5,-288 90.5,-324"/>
<text text-anchor="middle" x="49" y="-302.3" font-family="Times New Roman,serif" font-size="14.00">cavag._utils</text>
</g>
<!-- 2 -->
<g id="node2" class="node">
<title>2</title>
<polygon fill="none" stroke="black" points="280,-108 202,-108 202,-72 280,-72 280,-108"/>
<text text-anchor="middle" x="241" y="-86.3" font-family="Times New Roman,serif" font-size="14.00">cavag.fiber</text>
</g>
<!-- 6 -->
<g id="node6" class="node">
<title>6</title>
<polygon fill="none" stroke="black" points="183.5,-252 104.5,-252 104.5,-216 183.5,-216 183.5,-252"/>
<text text-anchor="middle" x="144" y="-230.3" font-family="Times New Roman,serif" font-size="14.00">cavag.misc</text>
</g>
<!-- 2&#45;&gt;6 -->
<g id="edge1" class="edge">
<title>2&#45;&gt;6</title>
<path fill="none" stroke="black" d="M255.01,-108.28C268.5,-127.15 284.84,-157.66 270,-180 253.04,-205.53 221.13,-218.79 193.67,-225.66"/>
<polygon fill="black" stroke="black" points="183.78,-227.91 192.53,-221.3 188.66,-226.8 193.53,-225.69 193.53,-225.69 193.53,-225.69 188.66,-226.8 194.54,-230.08 183.78,-227.91 183.78,-227.91"/>
</g>
<!-- 3 -->
<g id="node3" class="node">
<title>3</title>
<polygon fill="none" stroke="black" points="98,-108 0,-108 0,-72 98,-72 98,-108"/>
<text text-anchor="middle" x="49" y="-86.3" font-family="Times New Roman,serif" font-size="14.00">cavag.fpcavity</text>
</g>
<!-- 3&#45;&gt;1 -->
<g id="edge2" class="edge">
<title>3&#45;&gt;1</title>
<path fill="none" stroke="black" d="M41.93,-108.33C38.16,-118.53 33.91,-131.78 32,-144 24.7,-190.65 34.3,-245.42 41.77,-277.55"/>
<polygon fill="black" stroke="black" points="44.19,-287.53 37.46,-278.88 43.01,-282.67 41.83,-277.82 41.83,-277.82 41.83,-277.82 43.01,-282.67 46.21,-276.75 44.19,-287.53 44.19,-287.53"/>
</g>
<!-- 5 -->
<g id="node5" class="node">
<title>5</title>
<polygon fill="none" stroke="black" points="128.5,-180 41.5,-180 41.5,-144 128.5,-144 128.5,-180"/>
<text text-anchor="middle" x="85" y="-158.3" font-family="Times New Roman,serif" font-size="14.00">cavag.mirror</text>
</g>
<!-- 3&#45;&gt;5 -->
<g id="edge3" class="edge">
<title>3&#45;&gt;5</title>
<path fill="none" stroke="black" d="M57.9,-108.3C62,-116.27 66.95,-125.9 71.49,-134.74"/>
<polygon fill="black" stroke="black" points="76.2,-143.9 67.63,-137.06 73.92,-139.45 71.63,-135 71.63,-135 71.63,-135 73.92,-139.45 75.63,-132.94 76.2,-143.9 76.2,-143.9"/>
</g>
<!-- 4 -->
<g id="node4" class="node">
<title>4</title>
<polygon fill="none" stroke="black" points="261,-180 147,-180 147,-144 261,-144 261,-180"/>
<text text-anchor="middle" x="204" y="-158.3" font-family="Times New Roman,serif" font-size="14.00">cavag.gaussbeam</text>
</g>
<!-- 4&#45;&gt;6 -->
<g id="edge4" class="edge">
<title>4&#45;&gt;6</title>
<path fill="none" stroke="black" d="M189.17,-180.3C181.98,-188.7 173.2,-198.93 165.31,-208.14"/>
<polygon fill="black" stroke="black" points="158.66,-215.9 161.75,-205.37 161.91,-212.1 165.17,-208.3 165.17,-208.3 165.17,-208.3 161.91,-212.1 168.59,-211.23 158.66,-215.9 158.66,-215.9"/>
</g>
<!-- 5&#45;&gt;6 -->
<g id="edge5" class="edge">
<title>5&#45;&gt;6</title>
<path fill="none" stroke="black" d="M99.58,-180.3C106.66,-188.7 115.28,-198.93 123.05,-208.14"/>
<polygon fill="black" stroke="black" points="129.58,-215.9 119.7,-211.15 126.36,-212.07 123.14,-208.25 123.14,-208.25 123.14,-208.25 126.36,-212.07 126.58,-205.35 129.58,-215.9 129.58,-215.9"/>
</g>
<!-- 6&#45;&gt;1 -->
<g id="edge6" class="edge">
<title>6&#45;&gt;1</title>
<path fill="none" stroke="black" d="M120.52,-252.3C108.44,-261.2 93.55,-272.18 80.48,-281.8"/>
<polygon fill="black" stroke="black" points="72.21,-287.9 77.59,-278.34 76.24,-284.93 80.26,-281.96 80.26,-281.96 80.26,-281.96 76.24,-284.93 82.93,-285.59 72.21,-287.9 72.21,-287.9"/>
</g>
<!-- 7 -->
<g id="node7" class="node">
<title>7</title>
<polygon fill="none" stroke="black" points="163.5,-36 88.5,-36 88.5,0 163.5,0 163.5,-36"/>
<text text-anchor="middle" x="126" y="-14.3" font-family="Times New Roman,serif" font-size="14.00">cavag.utils</text>
</g>
<!-- 7&#45;&gt;2 -->
<g id="edge7" class="edge">
<title>7&#45;&gt;2</title>
<path fill="none" stroke="black" d="M154.13,-36.12C169.17,-45.28 187.87,-56.66 204.06,-66.52"/>
<polygon fill="black" stroke="black" points="212.76,-71.81 201.88,-70.45 208.49,-69.21 204.22,-66.61 204.22,-66.61 204.22,-66.61 208.49,-69.21 206.56,-62.77 212.76,-71.81 212.76,-71.81"/>
</g>
<!-- 7&#45;&gt;3 -->
<g id="edge8" class="edge">
<title>7&#45;&gt;3</title>
<path fill="none" stroke="black" d="M106.97,-36.3C97.46,-44.95 85.79,-55.55 75.43,-64.97"/>
<polygon fill="black" stroke="black" points="67.81,-71.9 72.19,-61.84 71.51,-68.53 75.21,-65.17 75.21,-65.17 75.21,-65.17 71.51,-68.53 78.24,-68.5 67.81,-71.9 67.81,-71.9"/>
</g>
<!-- 7&#45;&gt;5 -->
<g id="edge9" class="edge">
<title>7&#45;&gt;5</title>
<path fill="none" stroke="black" d="M123.27,-36.3C120.2,-54.41 114.61,-83.56 107,-108 104.27,-116.75 100.67,-126.06 97.16,-134.39"/>
<polygon fill="black" stroke="black" points="93.16,-143.63 93.01,-132.67 95.15,-139.04 97.13,-134.46 97.13,-134.46 97.13,-134.46 95.15,-139.04 101.26,-136.25 93.16,-143.63 93.16,-143.63"/>
</g>
</g>
</svg>
