<?xml version="1.0" encoding="UTF-8" standalone="no"?>
<!DOCTYPE svg PUBLIC "-//W3C//DTD SVG 1.1//EN"
 "http://www.w3.org/Graphics/SVG/1.1/DTD/svg11.dtd">
<!-- Generated by graphviz version 2.46.1 (20210213.1702)
 -->
<!-- Title: packages_cavag Pages: 1 -->
<svg width="356pt" height="332pt"
 viewBox="0.00 0.00 356.00 332.00" xmlns="http://www.w3.org/2000/svg" xmlns:xlink="http://www.w3.org/1999/xlink">
<g id="graph0" class="graph" transform="scale(1 1) rotate(0) translate(4 328)">
<title>packages_cavag</title>
<polygon fill="white" stroke="transparent" points="-4,4 -4,-328 352,-328 352,4 -4,4"/>
<!-- 1 -->
<g id="node1" class="node">
<title>1</title>
<polygon fill="none" stroke="black" points="183.5,-324 100.5,-324 100.5,-288 183.5,-288 183.5,-324"/>
<text text-anchor="middle" x="142" y="-302.3" font-family="Times New Roman,serif" font-size="14.00">cavag._utils</text>
</g>
<!-- 2 -->
<g id="node2" class="node">
<title>2</title>
<polygon fill="none" stroke="black" points="78,-180 0,-180 0,-144 78,-144 78,-180"/>
<text text-anchor="middle" x="39" y="-158.3" font-family="Times New Roman,serif" font-size="14.00">cavag.fiber</text>
</g>
<!-- 2&#45;&gt;1 -->
<g id="edge1" class="edge">
<title>2&#45;&gt;1</title>
<path fill="none" stroke="black" d="M48.46,-180.33C58.77,-198.73 76.21,-228.34 94,-252 101.2,-261.57 109.79,-271.46 117.7,-280.06"/>
<polygon fill="black" stroke="black" points="124.71,-287.55 114.59,-283.32 121.29,-283.9 117.88,-280.25 117.88,-280.25 117.88,-280.25 121.29,-283.9 121.16,-277.17 124.71,-287.55 124.71,-287.55"/>
</g>
<!-- 3 -->
<g id="node3" class="node">
<title>3</title>
<polygon fill="none" stroke="black" points="160,-108 62,-108 62,-72 160,-72 160,-108"/>
<text text-anchor="middle" x="111" y="-86.3" font-family="Times New Roman,serif" font-size="14.00">cavag.fpcavity</text>
</g>
<!-- 3&#45;&gt;1 -->
<g id="edge2" class="edge">
<title>3&#45;&gt;1</title>
<path fill="none" stroke="black" d="M111.7,-108.06C113.14,-137.61 117.16,-200.12 127,-252 128.65,-260.68 131.06,-270 133.47,-278.37"/>
<polygon fill="black" stroke="black" points="136.36,-288 129.17,-279.71 134.92,-283.21 133.48,-278.42 133.48,-278.42 133.48,-278.42 134.92,-283.21 137.8,-277.13 136.36,-288 136.36,-288"/>
</g>
<!-- 5 -->
<g id="node5" class="node">
<title>5</title>
<polygon fill="none" stroke="black" points="223.5,-180 136.5,-180 136.5,-144 223.5,-144 223.5,-180"/>
<text text-anchor="middle" x="180" y="-158.3" font-family="Times New Roman,serif" font-size="14.00">cavag.mirror</text>
</g>
<!-- 3&#45;&gt;5 -->
<g id="edge3" class="edge">
<title>3&#45;&gt;5</title>
<path fill="none" stroke="black" d="M128.06,-108.3C136.5,-116.86 146.82,-127.34 156.04,-136.7"/>
<polygon fill="black" stroke="black" points="163.14,-143.9 152.92,-139.93 159.63,-140.33 156.12,-136.77 156.12,-136.77 156.12,-136.77 159.63,-140.33 159.32,-133.61 163.14,-143.9 163.14,-143.9"/>
</g>
<!-- 4 -->
<g id="node4" class="node">
<title>4</title>
<polygon fill="none" stroke="black" points="348,-252 234,-252 234,-216 348,-216 348,-252"/>
<text text-anchor="middle" x="291" y="-230.3" font-family="Times New Roman,serif" font-size="14.00">cavag.gaussbeam</text>
</g>
<!-- 4&#45;&gt;1 -->
<g id="edge4" class="edge">
<title>4&#45;&gt;1</title>
<path fill="none" stroke="black" d="M254.55,-252.12C234.36,-261.61 209.08,-273.49 187.59,-283.58"/>
<polygon fill="black" stroke="black" points="178.33,-287.93 185.47,-279.61 182.86,-285.81 187.38,-283.68 187.38,-283.68 187.38,-283.68 182.86,-285.81 189.3,-287.75 178.33,-287.93 178.33,-287.93"/>
</g>
<!-- 6 -->
<g id="node6" class="node">
<title>6</title>
<polygon fill="none" stroke="black" points="215.5,-252 136.5,-252 136.5,-216 215.5,-216 215.5,-252"/>
<text text-anchor="middle" x="176" y="-230.3" font-family="Times New Roman,serif" font-size="14.00">cavag.misc</text>
</g>
<!-- 5&#45;&gt;6 -->
<g id="edge5" class="edge">
<title>5&#45;&gt;6</title>
<path fill="none" stroke="black" d="M179.01,-180.3C178.57,-188.02 178.04,-197.29 177.55,-205.89"/>
<polygon fill="black" stroke="black" points="176.98,-215.9 173.06,-205.66 177.26,-210.9 177.55,-205.91 177.55,-205.91 177.55,-205.91 177.26,-210.9 182.04,-206.17 176.98,-215.9 176.98,-215.9"/>
</g>
<!-- 6&#45;&gt;1 -->
<g id="edge6" class="edge">
<title>6&#45;&gt;1</title>
<path fill="none" stroke="black" d="M167.6,-252.3C163.73,-260.27 159.05,-269.9 154.76,-278.74"/>
<polygon fill="black" stroke="black" points="150.31,-287.9 150.63,-276.93 152.49,-283.4 154.68,-278.9 154.68,-278.9 154.68,-278.9 152.49,-283.4 158.72,-280.87 150.31,-287.9 150.31,-287.9"/>
</g>
<!-- 7 -->
<g id="node7" class="node">
<title>7</title>
<polygon fill="none" stroke="black" points="148.5,-36 73.5,-36 73.5,0 148.5,0 148.5,-36"/>
<text text-anchor="middle" x="111" y="-14.3" font-family="Times New Roman,serif" font-size="14.00">cavag.utils</text>
</g>
<!-- 7&#45;&gt;2 -->
<g id="edge7" class="edge">
<title>7&#45;&gt;2</title>
<path fill="none" stroke="black" d="M85.55,-36.01C73.76,-45.25 60.69,-57.7 53,-72 42.79,-91 39.51,-115.36 38.67,-133.79"/>
<polygon fill="black" stroke="black" points="38.42,-143.87 34.17,-133.77 38.54,-138.88 38.67,-133.88 38.67,-133.88 38.67,-133.88 38.54,-138.88 43.17,-133.99 38.42,-143.87 38.42,-143.87"/>
</g>
<!-- 7&#45;&gt;3 -->
<g id="edge8" class="edge">
<title>7&#45;&gt;3</title>
<path fill="none" stroke="black" d="M111,-36.3C111,-44.02 111,-53.29 111,-61.89"/>
<polygon fill="black" stroke="black" points="111,-71.9 106.5,-61.9 111,-66.9 111,-61.9 111,-61.9 111,-61.9 111,-66.9 115.5,-61.9 111,-71.9 111,-71.9"/>
</g>
<!-- 7&#45;&gt;5 -->
<g id="edge9" class="edge">
<title>7&#45;&gt;5</title>
<path fill="none" stroke="black" d="M136.95,-36.13C148.71,-45.32 161.61,-57.7 169,-72 178.85,-91.08 181.28,-115.44 181.43,-133.84"/>
<polygon fill="black" stroke="black" points="181.29,-143.91 176.93,-133.85 181.36,-138.91 181.43,-133.91 181.43,-133.91 181.43,-133.91 181.36,-138.91 185.93,-133.97 181.29,-143.91 181.29,-143.91"/>
</g>
</g>
</svg>
