<?xml version="1.0" encoding="UTF-8" standalone="no"?>
<svg
   xmlns:ns1="http://www.iki.fi/pav/software/textext/"
   xmlns:dc="http://purl.org/dc/elements/1.1/"
   xmlns:cc="http://creativecommons.org/ns#"
   xmlns:rdf="http://www.w3.org/1999/02/22-rdf-syntax-ns#"
   xmlns:svg="http://www.w3.org/2000/svg"
   xmlns="http://www.w3.org/2000/svg"
   xmlns:sodipodi="http://sodipodi.sourceforge.net/DTD/sodipodi-0.dtd"
   xmlns:inkscape="http://www.inkscape.org/namespaces/inkscape"
   width="378.4451"
   height="316.69598"
   viewBox="0 0 62.284494 52.121825"
   version="1.1"
   id="svg8"
   inkscape:version="0.92.4 (5da689c313, 2019-01-14)"
   sodipodi:docname="model_fpcavity.svg">
  <defs
     id="defs2">
    <marker
       style="overflow:visible"
       id="Arrow1Send"
       refX="0"
       refY="0"
       orient="auto"
       inkscape:stockid="Arrow1Send"
       inkscape:isstock="true">
      <path
         transform="matrix(-0.2,0,0,-0.2,-1.2,0)"
         style="fill:#000000;fill-opacity:1;fill-rule:evenodd;stroke:#000000;stroke-width:1.00000003pt;stroke-opacity:1"
         d="M 0,0 5,-5 -12.5,0 5,5 Z"
         id="path928"
         inkscape:connector-curvature="0" />
    </marker>
    <marker
       style="overflow:visible"
       id="marker3213"
       refX="0"
       refY="0"
       orient="auto"
       inkscape:stockid="Arrow1Mend"
       inkscape:isstock="true">
      <path
         transform="matrix(-0.4,0,0,-0.4,-4,0)"
         style="fill:#000000;fill-opacity:1;fill-rule:evenodd;stroke:#000000;stroke-width:1.00000003pt;stroke-opacity:1"
         d="M 0,0 5,-5 -12.5,0 5,5 Z"
         id="path3211"
         inkscape:connector-curvature="0" />
    </marker>
    <marker
       style="overflow:visible"
       id="marker3167"
       refX="0"
       refY="0"
       orient="auto"
       inkscape:stockid="Arrow1Mstart"
       inkscape:isstock="true">
      <path
         transform="matrix(0.4,0,0,0.4,4,0)"
         style="fill:#000000;fill-opacity:1;fill-rule:evenodd;stroke:#000000;stroke-width:1.00000003pt;stroke-opacity:1"
         d="M 0,0 5,-5 -12.5,0 5,5 Z"
         id="path3165"
         inkscape:connector-curvature="0" />
    </marker>
    <marker
       style="overflow:visible"
       id="marker3121"
       refX="0"
       refY="0"
       orient="auto"
       inkscape:stockid="Arrow1Mend"
       inkscape:isstock="true">
      <path
         transform="matrix(-0.4,0,0,-0.4,-4,0)"
         style="fill:#000000;fill-opacity:1;fill-rule:evenodd;stroke:#000000;stroke-width:1.00000003pt;stroke-opacity:1"
         d="M 0,0 5,-5 -12.5,0 5,5 Z"
         id="path3119"
         inkscape:connector-curvature="0" />
    </marker>
    <marker
       style="overflow:visible"
       id="Arrow1Mstart"
       refX="0"
       refY="0"
       orient="auto"
       inkscape:stockid="Arrow1Mstart"
       inkscape:isstock="true">
      <path
         transform="matrix(0.4,0,0,0.4,4,0)"
         style="fill:#000000;fill-opacity:1;fill-rule:evenodd;stroke:#000000;stroke-width:1.00000003pt;stroke-opacity:1"
         d="M 0,0 5,-5 -12.5,0 5,5 Z"
         id="path919"
         inkscape:connector-curvature="0" />
    </marker>
    <marker
       style="overflow:visible"
       id="marker1546"
       refX="0"
       refY="0"
       orient="auto"
       inkscape:stockid="Arrow1Mend"
       inkscape:isstock="true"
       inkscape:collect="always">
      <path
         transform="matrix(-0.4,0,0,-0.4,-4,0)"
         style="fill:#000000;fill-opacity:1;fill-rule:evenodd;stroke:#000000;stroke-width:1.00000003pt;stroke-opacity:1"
         d="M 0,0 5,-5 -12.5,0 5,5 Z"
         id="path1544"
         inkscape:connector-curvature="0" />
    </marker>
    <marker
       style="overflow:visible"
       id="marker1476"
       refX="0"
       refY="0"
       orient="auto"
       inkscape:stockid="Arrow1Mend"
       inkscape:isstock="true"
       inkscape:collect="always">
      <path
         transform="matrix(-0.4,0,0,-0.4,-4,0)"
         style="fill:#ff0000;fill-opacity:1;fill-rule:evenodd;stroke:#ff0000;stroke-width:1.00000003pt;stroke-opacity:1"
         d="M 0,0 5,-5 -12.5,0 5,5 Z"
         id="path1474"
         inkscape:connector-curvature="0" />
    </marker>
    <marker
       style="overflow:visible"
       id="Arrow1Mend"
       refX="0"
       refY="0"
       orient="auto"
       inkscape:stockid="Arrow1Mend"
       inkscape:isstock="true"
       inkscape:collect="always">
      <path
         transform="matrix(-0.4,0,0,-0.4,-4,0)"
         style="fill:#0000ff;fill-opacity:1;fill-rule:evenodd;stroke:#0000ff;stroke-width:1.00000003pt;stroke-opacity:1"
         d="M 0,0 5,-5 -12.5,0 5,5 Z"
         id="path922"
         inkscape:connector-curvature="0" />
    </marker>
  </defs>
  <sodipodi:namedview
     id="base"
     pagecolor="#ffffff"
     bordercolor="#666666"
     borderopacity="1.0"
     inkscape:pageopacity="0.0"
     inkscape:pageshadow="2"
     inkscape:zoom="1.6795216"
     inkscape:cx="52.47564"
     inkscape:cy="143.35043"
     inkscape:document-units="px"
     inkscape:current-layer="g2660"
     inkscape:document-rotation="0"
     showgrid="false"
     inkscape:object-paths="false"
     objecttolerance="10000"
     scale-x="0.16458"
     units="px"
     inkscape:window-width="1827"
     inkscape:window-height="1051"
     inkscape:window-x="-9"
     inkscape:window-y="-9"
     inkscape:window-maximized="1"
     inkscape:snap-global="false"
     inkscape:snap-intersection-paths="true"
     inkscape:object-nodes="false"
     inkscape:snap-others="false"
     inkscape:snap-grids="false"
     inkscape:snap-to-guides="false"
     fit-margin-top="0"
     fit-margin-left="0"
     fit-margin-right="0"
     fit-margin-bottom="0" />
  <metadata
     id="metadata5">
    <rdf:RDF>
      <cc:Work
         rdf:about="">
        <dc:format>image/svg+xml</dc:format>
        <dc:type
           rdf:resource="http://purl.org/dc/dcmitype/StillImage" />
        <dc:title></dc:title>
      </cc:Work>
    </rdf:RDF>
  </metadata>
  <g
     inkscape:label="图层 1"
     inkscape:groupmode="layer"
     id="layer1"
     transform="translate(-2.5734508,-1.5178488)">
    <g
       id="g2833"
       transform="matrix(1.3827779,0,0,1.3827779,-12.554343,-17.323745)"
       style="stroke-width:0.72318202">
      <g
         id="g2660"
         style="stroke-width:0.72318202">
        <g
           id="g1124">
          <g
             style="stroke-width:0.72318202"
             transform="translate(0.35517157,1.832973)"
             id="g1378">
            <path
               inkscape:connector-curvature="0"
               id="path911"
               d="M 14.781419,46.388604 H 50.787397"
               style="fill:none;stroke:#000000;stroke-width:0.119022px;stroke-linecap:butt;stroke-linejoin:miter;stroke-opacity:1;marker-start:url(#Arrow1Mstart);marker-end:url(#marker1546)" />
            <path
               inkscape:connector-curvature="0"
               id="path1264"
               d="m 14.565977,43.290718 v 6.195771"
               style="fill:none;stroke:#000000;stroke-width:0.119022px;stroke-linecap:butt;stroke-linejoin:miter;stroke-opacity:1" />
            <path
               inkscape:connector-curvature="0"
               id="path1294"
               d="m 51.102737,43.290718 v 6.195771"
               style="fill:none;stroke:#000000;stroke-width:0.119022px;stroke-linecap:butt;stroke-linejoin:miter;stroke-opacity:1" />
            <g
               style="stroke-width:2.55426002"
               id="g1337"
               ns1:jacobian_sqrt="1.33333"
               ns1:inkscapeversion="1.0.1"
               ns1:alignment="middle center"
               ns1:scale="1.0"
               ns1:preamble="C:\Users\Administrator\AppData\Roaming\inkscape\extensions\textext\default_packages.tex"
               ns1:text="$L$"
               ns1:pdfconverter="inkscape"
               ns1:texconverter="pdflatex"
               ns1:version="1.2.0"
               transform="matrix(0.37750324,0,0,0.37750324,31.77345,42.493465)">
              <defs
                 id="id-fa1681e2-d3a0-4616-9269-d8350db23561" />
              <g
                 style="stroke-width:2.55426002"
                 transform="translate(-149.103,-127.953)"
                 id="id-1cd47da1-88b1-4c16-a425-5045c562c8aa">
                <g
                   id="id-fcc1efac-d837-4c74-81b9-787608279a58"
                   style="fill:#000000;fill-opacity:1;stroke-width:2.55426002">
                  <g
                     style="stroke-width:2.55426002"
                     id="g1333"
                     transform="translate(148.712,134.765)">
                    <path
                       inkscape:connector-curvature="0"
                       id="id-26e09099-2029-4d4c-8eb8-0404b215b1f3"
                       d="M 3.734375,-6.03125 C 3.8125,-6.390625 3.84375,-6.5 4.78125,-6.5 c 0.296875,0 0.375,0 0.375,-0.1875 0,-0.125 -0.109375,-0.125 -0.15625,-0.125 -0.328125,0 -1.140625,0.03125 -1.46875,0.03125 -0.296875,0 -1.03125,-0.03125 -1.328125,-0.03125 -0.0625,0 -0.1875,0 -0.1875,0.203125 0,0.109375 0.09375,0.109375 0.28125,0.109375 0.015625,0 0.203125,0 0.375,0.015625 0.171875,0.03125 0.265625,0.03125 0.265625,0.171875 0,0.03125 0,0.0625 -0.03125,0.1875 L 1.5625,-0.78125 c -0.09375,0.390625 -0.109375,0.46875 -0.90625,0.46875 -0.171875,0 -0.265625,0 -0.265625,0.203125 C 0.390625,0 0.484375,0 0.65625,0 h 4.625 C 5.515625,0 5.515625,0 5.578125,-0.171875 L 6.375,-2.328125 c 0.03125,-0.109375 0.03125,-0.125 0.03125,-0.140625 0,-0.03125 -0.03125,-0.109375 -0.109375,-0.109375 -0.09375,0 -0.109375,0.0625 -0.171875,0.21875 -0.34375,0.90625 -0.78125,2.046875 -2.5,2.046875 H 2.6875 c -0.140625,0 -0.171875,0 -0.21875,0 -0.109375,-0.015625 -0.140625,-0.03125 -0.140625,-0.109375 0,-0.03125 0,-0.046875 0.046875,-0.21875 z m 0,0"
                       style="stroke:none;stroke-width:0" />
                  </g>
                </g>
              </g>
            </g>
          </g>
          <path
             inkscape:connector-curvature="0"
             id="path840"
             d="M 10.995651,28.70804 H 55.983168"
             style="fill:none;stroke:#000000;stroke-width:0.238042;stroke-linecap:butt;stroke-linejoin:miter;stroke-miterlimit:4;stroke-dasharray:1.90434, 0.476085, 0.238042, 0.476085;stroke-dashoffset:0;stroke-opacity:1" />
          <path
             d="M 18.638551,39.080062 A 7.7346363,11.97658 0 0 1 14.771233,28.70804 7.7346363,11.97658 0 0 1 18.638551,18.336018"
             sodipodi:open="true"
             sodipodi:arc-type="arc"
             sodipodi:end="4.1887902"
             sodipodi:start="2.0943951"
             sodipodi:ry="11.97658"
             sodipodi:rx="7.7346363"
             sodipodi:cy="28.70804"
             sodipodi:cx="22.505869"
             sodipodi:type="arc"
             id="path907"
             style="opacity:0.99900004;fill:none;stroke:#0000ff;stroke-width:0.238042;stroke-linecap:square;stroke-miterlimit:4;stroke-dasharray:none;stroke-dashoffset:0;stroke-opacity:0.982301" />
          <path
             d="m -48.415188,38.351593 a 5.8127441,11.135415 0 0 1 -2.906372,-9.643553 5.8127441,11.135415 0 0 1 2.906372,-9.643552"
             transform="scale(-1,1)"
             sodipodi:open="true"
             sodipodi:arc-type="arc"
             sodipodi:end="4.1887902"
             sodipodi:start="2.0943951"
             sodipodi:ry="11.135415"
             sodipodi:rx="5.8127441"
             sodipodi:cy="28.70804"
             sodipodi:cx="-45.508816"
             sodipodi:type="arc"
             id="path909"
             style="opacity:0.99900004;fill:none;stroke:#ff0000;stroke-width:0.238042;stroke-linecap:square;stroke-miterlimit:4;stroke-dasharray:none;stroke-dashoffset:0;stroke-opacity:0.982301" />
          <path
             inkscape:connector-curvature="0"
             id="path1404"
             d="M 33.09526,28.546161 16.503268,21.242037"
             style="fill:none;stroke:#0000ff;stroke-width:0.119022px;stroke-linecap:butt;stroke-linejoin:miter;stroke-opacity:1;marker-end:url(#Arrow1Mend)" />
          <path
             inkscape:connector-curvature="0"
             id="path1406"
             d="M 26.936844,28.917181 48.551551,19.258826"
             style="fill:none;stroke:#ff0000;stroke-width:0.119022px;stroke-linecap:butt;stroke-linejoin:miter;stroke-opacity:1;marker-end:url(#marker1476)" />
          <g
             id="g1762"
             style="stroke-width:0"
             ns1:jacobian_sqrt="0.377503"
             ns1:inkscapeversion="1.0.1"
             ns1:alignment="middle center"
             ns1:scale="0.28312813782034457"
             ns1:preamble="C:\Users\Administrator\AppData\Roaming\inkscape\extensions\textext\default_packages.tex"
             ns1:text="$\text{ROC}_l$"
             ns1:pdfconverter="inkscape"
             ns1:texconverter="pdflatex"
             ns1:version="1.2.0"
             transform="matrix(0.377503,0,0,0.377503,20.802007,17.908218)">
            <defs
               id="id-87542fe2-7b6e-410a-b0fb-4693c2b6c02a" />
            <g
               style="stroke-width:0"
               transform="translate(-149.056,-127.734)"
               id="id-e5791309-dcba-4bdd-8e0d-3b93af74b268">
              <g
                 id="id-63dbb9e5-bfd4-4e80-b1cd-7a4af3933347"
                 style="fill:#000000;fill-opacity:1;stroke-width:0">
                <g
                   id="g1899"
                   style="stroke-width:0"
                   transform="translate(148.712,134.765)">
                  <path
                     inkscape:connector-curvature="0"
                     id="id-287e7f48-520d-4e7c-9368-987dfa4fc66d"
                     d="M 2.234375,-3.515625 V -6.09375 c 0,-0.234375 0,-0.359375 0.21875,-0.390625 C 2.546875,-6.5 2.84375,-6.5 3.046875,-6.5 c 0.890625,0 2,0.046875 2,1.484375 0,0.6875 -0.234375,1.5 -1.703125,1.5 z m 2.109375,0.125 C 5.296875,-3.625 6.078125,-4.234375 6.078125,-5.015625 6.078125,-5.96875 4.9375,-6.8125 3.484375,-6.8125 H 0.34375 V -6.5 h 0.25 c 0.765625,0 0.78125,0.109375 0.78125,0.46875 v 5.25 c 0,0.359375 -0.015625,0.46875 -0.78125,0.46875 h -0.25 V 0 c 0.359375,-0.03125 1.078125,-0.03125 1.453125,-0.03125 0.390625,0 1.109375,0 1.46875,0.03125 v -0.3125 h -0.25 c -0.765625,0 -0.78125,-0.109375 -0.78125,-0.46875 V -3.296875 H 3.375 c 0.15625,0 0.578125,0 0.9375,0.34375 0.375,0.34375 0.375,0.65625 0.375,1.328125 0,0.640625 0,1.046875 0.40625,1.421875 0.40625,0.359375 0.953125,0.421875 1.25,0.421875 0.78125,0 0.953125,-0.8125 0.953125,-1.09375 0,-0.0625 0,-0.171875 -0.125,-0.171875 -0.109375,0 -0.109375,0.09375 -0.125,0.15625 C 6.984375,-0.171875 6.640625,0 6.390625,0 5.90625,0 5.828125,-0.515625 5.6875,-1.4375 L 5.546875,-2.234375 C 5.375,-2.875 4.890625,-3.203125 4.34375,-3.390625 Z m 0,0"
                     style="stroke:none;stroke-width:0" />
                </g>
              </g>
              <g
                 id="id-a1fbb75e-9011-4569-adc7-02f50b4a0687"
                 style="fill:#000000;fill-opacity:1;stroke-width:0">
                <g
                   id="g1903"
                   style="stroke-width:0"
                   transform="translate(155.767,134.765)">
                  <path
                     inkscape:connector-curvature="0"
                     id="id-e3edd977-b500-425a-813d-a7b0e20c3eeb"
                     d="m 7.1875,-3.375 c 0,-2.03125 -1.5,-3.65625 -3.3125,-3.65625 -1.796875,0 -3.3125,1.59375 -3.3125,3.65625 0,2.046875 1.53125,3.59375 3.3125,3.59375 1.8125,0 3.3125,-1.578125 3.3125,-3.59375 z M 3.875,-0.046875 c -0.953125,0 -2.296875,-0.875 -2.296875,-3.46875 0,-2.578125 1.46875,-3.265625 2.296875,-3.265625 0.859375,0 2.28125,0.703125 2.28125,3.265625 0,2.640625 -1.359375,3.46875 -2.28125,3.46875 z m 0,0"
                     style="stroke:none;stroke-width:0" />
                </g>
                <g
                   id="g1906"
                   style="stroke-width:0"
                   transform="translate(163.515,134.765)">
                  <path
                     inkscape:connector-curvature="0"
                     id="id-462c53c7-e51d-4124-a2c4-44cdd8e607fb"
                     d="m 0.5625,-3.40625 c 0,2.0625 1.609375,3.625 3.46875,3.625 1.625,0 2.59375,-1.390625 2.59375,-2.546875 C 6.625,-2.421875 6.625,-2.5 6.5,-2.5 6.390625,-2.5 6.390625,-2.4375 6.375,-2.328125 6.296875,-0.90625 5.234375,-0.09375 4.140625,-0.09375 c -0.609375,0 -2.5625,-0.328125 -2.5625,-3.3125 0,-2.96875 1.953125,-3.3125 2.5625,-3.3125 1.078125,0 1.96875,0.90625 2.171875,2.359375 C 6.328125,-4.21875 6.328125,-4.1875 6.46875,-4.1875 6.625,-4.1875 6.625,-4.21875 6.625,-4.421875 V -6.78125 c 0,-0.171875 0,-0.25 -0.109375,-0.25 -0.03125,0 -0.078125,0 -0.15625,0.125 l -0.5,0.734375 C 5.5,-6.53125 4.984375,-7.03125 4.03125,-7.03125 c -1.875,0 -3.46875,1.59375 -3.46875,3.625 z m 0,0"
                     style="stroke:none;stroke-width:0" />
                </g>
              </g>
              <g
                 id="id-51ef2c25-b3be-4ca0-916b-bfd7da725bf6"
                 style="fill:#000000;fill-opacity:1;stroke-width:0">
                <g
                   id="g1910"
                   style="stroke-width:0"
                   transform="translate(170.713,136.259)">
                  <path
                     inkscape:connector-curvature="0"
                     id="id-55ff19c3-8935-4edb-9ecd-6e95c6fab6b6"
                     d="M 1.96875,-4.625 C 1.96875,-4.640625 2,-4.734375 2,-4.734375 2,-4.78125 1.96875,-4.84375 1.875,-4.84375 c -0.140625,0 -0.71875,0.0625 -0.890625,0.078125 -0.046875,0 -0.140625,0.015625 -0.140625,0.15625 0,0.09375 0.09375,0.09375 0.171875,0.09375 0.34375,0 0.34375,0.0625 0.34375,0.109375 0,0.046875 -0.015625,0.09375 -0.03125,0.15625 l -0.875,3.4375 C 0.4375,-0.734375 0.4375,-0.65625 0.4375,-0.59375 c 0,0.453125 0.390625,0.65625 0.71875,0.65625 0.171875,0 0.390625,-0.046875 0.5625,-0.359375 C 1.875,-0.5625 1.96875,-0.96875 1.96875,-1 c 0,-0.09375 -0.09375,-0.09375 -0.109375,-0.09375 -0.109375,0 -0.125,0.046875 -0.140625,0.171875 C 1.625,-0.578125 1.484375,-0.125 1.1875,-0.125 1,-0.125 0.953125,-0.296875 0.953125,-0.46875 0.953125,-0.546875 0.96875,-0.671875 1,-0.75 Z m 0,0"
                     style="stroke:none;stroke-width:0" />
                </g>
              </g>
            </g>
          </g>
          <g
             id="g1996"
             style="stroke-width:0"
             ns1:jacobian_sqrt="0.377503"
             ns1:inkscapeversion="1.0.1"
             ns1:alignment="middle center"
             ns1:scale="0.28312813782034457"
             ns1:preamble="C:\Users\Administrator\AppData\Roaming\inkscape\extensions\textext\default_packages.tex"
             ns1:text="$\text{ROC}_r$"
             ns1:pdfconverter="inkscape"
             ns1:texconverter="pdflatex"
             ns1:version="1.2.0"
             transform="matrix(0.377503,0,0,0.377503,36.064531,16.634034)">
            <defs
               id="id-02b672f1-f175-4e95-919e-e090cce0c1c8" />
            <g
               style="stroke-width:0"
               transform="translate(-149.056,-127.734)"
               id="id-02af37c8-9043-43eb-9aa5-95a038c7e3ba">
              <g
                 id="id-fce4515b-a63c-455a-b631-e8a9de0b761f"
                 style="fill:#000000;fill-opacity:1;stroke-width:0">
                <g
                   id="g2081"
                   style="stroke-width:0"
                   transform="translate(148.712,134.765)">
                  <path
                     inkscape:connector-curvature="0"
                     id="id-3d66acea-bfbc-4773-b080-53fa30d3b577"
                     d="M 2.234375,-3.515625 V -6.09375 c 0,-0.234375 0,-0.359375 0.21875,-0.390625 C 2.546875,-6.5 2.84375,-6.5 3.046875,-6.5 c 0.890625,0 2,0.046875 2,1.484375 0,0.6875 -0.234375,1.5 -1.703125,1.5 z m 2.109375,0.125 C 5.296875,-3.625 6.078125,-4.234375 6.078125,-5.015625 6.078125,-5.96875 4.9375,-6.8125 3.484375,-6.8125 H 0.34375 V -6.5 h 0.25 c 0.765625,0 0.78125,0.109375 0.78125,0.46875 v 5.25 c 0,0.359375 -0.015625,0.46875 -0.78125,0.46875 h -0.25 V 0 c 0.359375,-0.03125 1.078125,-0.03125 1.453125,-0.03125 0.390625,0 1.109375,0 1.46875,0.03125 v -0.3125 h -0.25 c -0.765625,0 -0.78125,-0.109375 -0.78125,-0.46875 V -3.296875 H 3.375 c 0.15625,0 0.578125,0 0.9375,0.34375 0.375,0.34375 0.375,0.65625 0.375,1.328125 0,0.640625 0,1.046875 0.40625,1.421875 0.40625,0.359375 0.953125,0.421875 1.25,0.421875 0.78125,0 0.953125,-0.8125 0.953125,-1.09375 0,-0.0625 0,-0.171875 -0.125,-0.171875 -0.109375,0 -0.109375,0.09375 -0.125,0.15625 C 6.984375,-0.171875 6.640625,0 6.390625,0 5.90625,0 5.828125,-0.515625 5.6875,-1.4375 L 5.546875,-2.234375 C 5.375,-2.875 4.890625,-3.203125 4.34375,-3.390625 Z m 0,0"
                     style="stroke:none;stroke-width:0" />
                </g>
              </g>
              <g
                 id="id-fd4b82f6-12c2-4ec2-974f-8f1b7f5e084c"
                 style="fill:#000000;fill-opacity:1;stroke-width:0">
                <g
                   id="g2085"
                   style="stroke-width:0"
                   transform="translate(155.767,134.765)">
                  <path
                     inkscape:connector-curvature="0"
                     id="id-d98dade6-9799-4e25-8541-2b9689576f1d"
                     d="m 7.1875,-3.375 c 0,-2.03125 -1.5,-3.65625 -3.3125,-3.65625 -1.796875,0 -3.3125,1.59375 -3.3125,3.65625 0,2.046875 1.53125,3.59375 3.3125,3.59375 1.8125,0 3.3125,-1.578125 3.3125,-3.59375 z M 3.875,-0.046875 c -0.953125,0 -2.296875,-0.875 -2.296875,-3.46875 0,-2.578125 1.46875,-3.265625 2.296875,-3.265625 0.859375,0 2.28125,0.703125 2.28125,3.265625 0,2.640625 -1.359375,3.46875 -2.28125,3.46875 z m 0,0"
                     style="stroke:none;stroke-width:0" />
                </g>
                <g
                   id="g2088"
                   style="stroke-width:0"
                   transform="translate(163.515,134.765)">
                  <path
                     inkscape:connector-curvature="0"
                     id="id-fd383b1f-750a-4ede-8a23-b6f46c0cc160"
                     d="m 0.5625,-3.40625 c 0,2.0625 1.609375,3.625 3.46875,3.625 1.625,0 2.59375,-1.390625 2.59375,-2.546875 C 6.625,-2.421875 6.625,-2.5 6.5,-2.5 6.390625,-2.5 6.390625,-2.4375 6.375,-2.328125 6.296875,-0.90625 5.234375,-0.09375 4.140625,-0.09375 c -0.609375,0 -2.5625,-0.328125 -2.5625,-3.3125 0,-2.96875 1.953125,-3.3125 2.5625,-3.3125 1.078125,0 1.96875,0.90625 2.171875,2.359375 C 6.328125,-4.21875 6.328125,-4.1875 6.46875,-4.1875 6.625,-4.1875 6.625,-4.21875 6.625,-4.421875 V -6.78125 c 0,-0.171875 0,-0.25 -0.109375,-0.25 -0.03125,0 -0.078125,0 -0.15625,0.125 l -0.5,0.734375 C 5.5,-6.53125 4.984375,-7.03125 4.03125,-7.03125 c -1.875,0 -3.46875,1.59375 -3.46875,3.625 z m 0,0"
                     style="stroke:none;stroke-width:0" />
                </g>
              </g>
              <g
                 id="id-4f2185b7-6566-440f-972c-e18b3997b527"
                 style="fill:#000000;fill-opacity:1;stroke-width:0">
                <g
                   id="g2092"
                   style="stroke-width:0"
                   transform="translate(170.713,136.259)">
                  <path
                     inkscape:connector-curvature="0"
                     id="id-0020a653-36d0-4e99-a7d5-94b155f509fa"
                     d="m 1.640625,-1.40625 c 0,-0.046875 0.171875,-0.671875 0.171875,-0.703125 0.015625,-0.0625 0.21875,-0.40625 0.453125,-0.578125 0.0625,-0.046875 0.25,-0.1875 0.5625,-0.1875 0.0625,0 0.234375,0 0.375,0.09375 -0.21875,0.0625 -0.296875,0.265625 -0.296875,0.390625 0,0.140625 0.109375,0.25 0.265625,0.25 0.171875,0 0.390625,-0.125 0.390625,-0.421875 0,-0.359375 -0.375,-0.515625 -0.734375,-0.515625 -0.359375,0 -0.671875,0.15625 -0.984375,0.5 -0.125,-0.421875 -0.546875,-0.5 -0.71875,-0.5 -0.25,0 -0.421875,0.171875 -0.546875,0.359375 -0.15625,0.265625 -0.25,0.671875 -0.25,0.71875 0,0.078125 0.09375,0.078125 0.125,0.078125 0.09375,0 0.09375,-0.015625 0.140625,-0.203125 0.109375,-0.421875 0.25,-0.75 0.515625,-0.75 0.1875,0 0.234375,0.15625 0.234375,0.34375 0,0.125 -0.0625,0.390625 -0.125,0.578125 -0.046875,0.1875 -0.109375,0.46875 -0.140625,0.625 L 0.84375,-0.4375 C 0.828125,-0.34375 0.78125,-0.171875 0.78125,-0.15625 0.78125,0 0.90625,0.0625 1.015625,0.0625 1.125,0.0625 1.265625,0 1.3125,-0.125 1.328125,-0.171875 1.40625,-0.484375 1.453125,-0.65625 Z m 0,0"
                     style="stroke:none;stroke-width:0" />
                </g>
              </g>
            </g>
          </g>
          <path
             inkscape:connector-curvature="0"
             id="path3117"
             d="M 33.352245,43.246202 V 14.341907"
             style="fill:none;stroke:#000000;stroke-width:0.10711915;stroke-linecap:butt;stroke-linejoin:miter;stroke-miterlimit:4;stroke-dasharray:none;stroke-dashoffset:0;stroke-opacity:1;marker-end:url(#Arrow1Send)" />
          <g
             id="g3437"
             style="stroke-width:0"
             ns1:jacobian_sqrt="0.197216"
             ns1:inkscapeversion="1.0.1"
             ns1:alignment="middle center"
             ns1:scale="0.14791265881779195"
             ns1:preamble="C:\Users\Administrator\AppData\Roaming\inkscape\extensions\textext\default_packages.tex"
             ns1:text="$y$"
             ns1:pdfconverter="inkscape"
             ns1:texconverter="pdflatex"
             ns1:version="1.2.0"
             transform="matrix(0.197216,0,0,0.197216,34.3666,13.817)">
            <defs
               id="id-b9fcc4f6-baa8-460b-9865-aa885c8a71b5">
              <g
                 style="stroke-width:0"
                 id="id-0565e00b-921c-47d0-bb62-344e5d246d7f">
                <symbol
                   style="overflow:visible;stroke-width:0"
                   id="id-06b605ae-3710-4f6c-89d2-6d56ee9e63d4"
                   overflow="visible">
                  <path
                     inkscape:connector-curvature="0"
                     id="id-ba95e6c8-5007-44e9-ad61-f2dc7fd90c7d"
                     d=""
                     style="stroke:none;stroke-width:0" />
                </symbol>
                <symbol
                   style="overflow:visible;stroke-width:0"
                   id="id-00d78a78-52fb-45b3-a9bf-1211639807ec"
                   overflow="visible">
                  <path
                     inkscape:connector-curvature="0"
                     id="id-7966eae3-0ff2-4236-ab4b-801b1925ce62"
                     d="m 4.84375,-3.796875 c 0.046875,-0.140625 0.046875,-0.15625 0.046875,-0.234375 0,-0.171875 -0.140625,-0.265625 -0.296875,-0.265625 -0.09375,0 -0.25,0.0625 -0.34375,0.203125 -0.015625,0.0625 -0.109375,0.359375 -0.140625,0.546875 -0.078125,0.25 -0.140625,0.53125 -0.203125,0.796875 l -0.453125,1.796875 c -0.03125,0.140625 -0.46875,0.84375 -1.125,0.84375 -0.5,0 -0.609375,-0.4375 -0.609375,-0.8125 C 1.71875,-1.375 1.890625,-2 2.21875,-2.875 2.375,-3.28125 2.421875,-3.390625 2.421875,-3.59375 c 0,-0.4375 -0.3125,-0.8125 -0.8125,-0.8125 -0.953125,0 -1.3125,1.453125 -1.3125,1.53125 0,0.109375 0.09375,0.109375 0.109375,0.109375 0.109375,0 0.109375,-0.03125 0.15625,-0.1875 0.28125,-0.9375 0.671875,-1.234375 1.015625,-1.234375 0.078125,0 0.25,0 0.25,0.3125 0,0.25 -0.109375,0.515625 -0.171875,0.703125 -0.40625,1.0625 -0.578125,1.625 -0.578125,2.09375 0,0.890625 0.625,1.1875 1.21875,1.1875 0.390625,0 0.71875,-0.171875 1,-0.453125 -0.125,0.515625 -0.25,1.015625 -0.640625,1.546875 -0.265625,0.328125 -0.640625,0.625 -1.09375,0.625 -0.140625,0 -0.59375,-0.03125 -0.765625,-0.421875 0.15625,0 0.296875,0 0.421875,-0.125 C 1.328125,1.203125 1.421875,1.0625 1.421875,0.875 1.421875,0.5625 1.15625,0.53125 1.0625,0.53125 0.828125,0.53125 0.5,0.6875 0.5,1.171875 c 0,0.5 0.4375,0.875 1.0625,0.875 1.015625,0 2.046875,-0.90625 2.328125,-2.03125 z m 0,0"
                     style="stroke:none;stroke-width:0" />
                </symbol>
              </g>
            </defs>
            <g
               style="stroke-width:0"
               transform="matrix(1.3002404,0,0,1.3002404,-194.43709,-170.4667)"
               id="id-49036b7a-cd15-4772-8b51-8e848c58801e">
              <g
                 id="id-0e741444-e0d2-4ca2-a1b1-1b49e1438a04"
                 style="fill:#000000;fill-opacity:1;stroke-width:0">
                <g
                   id="g3527"
                   style="stroke-width:0"
                   transform="translate(148.712,134.765)">
                  <path
                     inkscape:connector-curvature="0"
                     id="id-257d2141-23f1-4ac9-a6d2-3bdaa85a4870"
                     d="m 4.84375,-3.796875 c 0.046875,-0.140625 0.046875,-0.15625 0.046875,-0.234375 0,-0.171875 -0.140625,-0.265625 -0.296875,-0.265625 -0.09375,0 -0.25,0.0625 -0.34375,0.203125 -0.015625,0.0625 -0.109375,0.359375 -0.140625,0.546875 -0.078125,0.25 -0.140625,0.53125 -0.203125,0.796875 l -0.453125,1.796875 c -0.03125,0.140625 -0.46875,0.84375 -1.125,0.84375 -0.5,0 -0.609375,-0.4375 -0.609375,-0.8125 C 1.71875,-1.375 1.890625,-2 2.21875,-2.875 2.375,-3.28125 2.421875,-3.390625 2.421875,-3.59375 c 0,-0.4375 -0.3125,-0.8125 -0.8125,-0.8125 -0.953125,0 -1.3125,1.453125 -1.3125,1.53125 0,0.109375 0.09375,0.109375 0.109375,0.109375 0.109375,0 0.109375,-0.03125 0.15625,-0.1875 0.28125,-0.9375 0.671875,-1.234375 1.015625,-1.234375 0.078125,0 0.25,0 0.25,0.3125 0,0.25 -0.109375,0.515625 -0.171875,0.703125 -0.40625,1.0625 -0.578125,1.625 -0.578125,2.09375 0,0.890625 0.625,1.1875 1.21875,1.1875 0.390625,0 0.71875,-0.171875 1,-0.453125 -0.125,0.515625 -0.25,1.015625 -0.640625,1.546875 -0.265625,0.328125 -0.640625,0.625 -1.09375,0.625 -0.140625,0 -0.59375,-0.03125 -0.765625,-0.421875 0.15625,0 0.296875,0 0.421875,-0.125 C 1.328125,1.203125 1.421875,1.0625 1.421875,0.875 1.421875,0.5625 1.15625,0.53125 1.0625,0.53125 0.828125,0.53125 0.5,0.6875 0.5,1.171875 c 0,0.5 0.4375,0.875 1.0625,0.875 1.015625,0 2.046875,-0.90625 2.328125,-2.03125 z m 0,0"
                     style="stroke:none;stroke-width:0" />
                </g>
              </g>
            </g>
          </g>
          <g
             id="g2178"
             style="stroke-width:0"
             ns1:jacobian_sqrt="0.377503"
             ns1:inkscapeversion="1.0.1"
             ns1:alignment="middle center"
             ns1:scale="0.28312813782034457"
             ns1:preamble="C:\Users\Administrator\AppData\Roaming\inkscape\extensions\textext\default_packages.tex"
             ns1:text="$\mathcal{R}_l$"
             ns1:pdfconverter="inkscape"
             ns1:texconverter="pdflatex"
             ns1:version="1.2.0"
             transform="matrix(0.377503,0,0,0.377503,10.9401,33.7228)">
            <defs
               id="id-f46d1d03-540a-4483-8fe0-a1f4fc79d055">
              <g
                 style="stroke-width:0"
                 id="id-0fdfa081-a0c9-4d2e-a2e1-aa4a7c48225b">
                <symbol
                   style="overflow:visible;stroke-width:0"
                   id="id-c89679b9-79fa-4708-aa6a-fbe44a8d7397"
                   overflow="visible">
                  <path
                     inkscape:connector-curvature="0"
                     id="id-fb97eb36-120c-4e49-9cf1-2d3aa61da580"
                     d=""
                     style="stroke:none;stroke-width:0" />
                </symbol>
                <symbol
                   style="overflow:visible;stroke-width:0"
                   id="id-c99deb72-a059-4147-be79-b1f9179b5a9b"
                   overflow="visible">
                  <path
                     inkscape:connector-curvature="0"
                     id="id-81122f02-3f70-451e-99f6-da00f9b7b525"
                     d="m 4.03125,-6.265625 c 1.921875,0 2.421875,0.46875 2.421875,1.125 0,0.609375 -0.484375,1.8125 -2.125,1.875 C 3.84375,-3.25 3.5,-2.90625 3.5,-2.796875 c 0,0.0625 0.03125,0.0625 0.046875,0.0625 0.421875,0.078125 0.625,0.265625 1.140625,1.453125 0.453125,1.046875 0.71875,1.5 1.296875,1.5 1.21875,0 2.359375,-1.21875 2.359375,-1.4375 0,-0.078125 -0.078125,-0.078125 -0.109375,-0.078125 -0.125,0 -0.515625,0.140625 -0.71875,0.421875 -0.15625,0.234375 -0.375,0.546875 -0.859375,0.546875 -0.515625,0 -0.828125,-0.703125 -1.15625,-1.484375 -0.21875,-0.5 -0.390625,-0.875 -0.625,-1.140625 1.4375,-0.53125 2.421875,-1.578125 2.421875,-2.609375 0,-1.25 -1.671875,-1.25 -3.1875,-1.25 -0.984375,0 -1.546875,0 -2.390625,0.359375 -1.328125,0.59375 -1.515625,1.421875 -1.515625,1.5 0,0.0625 0.046875,0.078125 0.109375,0.078125 0.15625,0 0.390625,-0.140625 0.46875,-0.1875 0.203125,-0.140625 0.234375,-0.203125 0.296875,-0.390625 0.140625,-0.40625 0.421875,-0.75 1.671875,-0.8125 -0.046875,0.609375 -0.140625,1.546875 -0.484375,3 C 2,-2.15625 1.640625,-1.0625 1.203125,0.015625 c -0.0625,0.109375 -0.0625,0.125 -0.0625,0.140625 0,0.0625 0.078125,0.0625 0.109375,0.0625 0.203125,0 0.609375,-0.234375 0.71875,-0.421875 0.03125,-0.0625 1.296875,-2.875 1.59375,-6.0625 z m 0,0"
                     style="stroke:none;stroke-width:0" />
                </symbol>
                <symbol
                   style="overflow:visible;stroke-width:0"
                   id="id-b20234ae-37b0-47f4-87de-5e9bb5b78f51"
                   overflow="visible">
                  <path
                     inkscape:connector-curvature="0"
                     id="id-9b23ff15-666e-45d6-879a-751222155faa"
                     d=""
                     style="stroke:none;stroke-width:0" />
                </symbol>
                <symbol
                   style="overflow:visible;stroke-width:0"
                   id="id-aa769ab5-794b-4904-a278-52d3ea05d785"
                   overflow="visible">
                  <path
                     inkscape:connector-curvature="0"
                     id="id-26acd175-02eb-4a19-a148-11d85f77ce9d"
                     d="M 1.96875,-4.625 C 1.96875,-4.640625 2,-4.734375 2,-4.734375 2,-4.78125 1.96875,-4.84375 1.875,-4.84375 c -0.140625,0 -0.71875,0.0625 -0.890625,0.078125 -0.046875,0 -0.140625,0.015625 -0.140625,0.15625 0,0.09375 0.09375,0.09375 0.171875,0.09375 0.34375,0 0.34375,0.0625 0.34375,0.109375 0,0.046875 -0.015625,0.09375 -0.03125,0.15625 l -0.875,3.4375 C 0.4375,-0.734375 0.4375,-0.65625 0.4375,-0.59375 c 0,0.453125 0.390625,0.65625 0.71875,0.65625 0.171875,0 0.390625,-0.046875 0.5625,-0.359375 C 1.875,-0.5625 1.96875,-0.96875 1.96875,-1 c 0,-0.09375 -0.09375,-0.09375 -0.109375,-0.09375 -0.109375,0 -0.125,0.046875 -0.140625,0.171875 C 1.625,-0.578125 1.484375,-0.125 1.1875,-0.125 1,-0.125 0.953125,-0.296875 0.953125,-0.46875 0.953125,-0.546875 0.96875,-0.671875 1,-0.75 Z m 0,0"
                     style="stroke:none;stroke-width:0" />
                </symbol>
              </g>
            </defs>
            <g
               style="stroke-width:0"
               transform="translate(-148.915,-127.953)"
               id="id-c6cc7bcf-e69a-43c9-900e-153cdc7dac6e">
              <g
                 id="id-708defb3-e1c7-465a-8cb7-218cb0ad8fe6"
                 style="fill:#000000;fill-opacity:1;stroke-width:0">
                <g
                   id="g1111"
                   style="stroke-width:0"
                   transform="translate(148.712,134.765)">
                  <path
                     inkscape:connector-curvature="0"
                     id="id-6fd35ec5-d428-4d2e-9576-b9db121bdbbe"
                     d="m 4.03125,-6.265625 c 1.921875,0 2.421875,0.46875 2.421875,1.125 0,0.609375 -0.484375,1.8125 -2.125,1.875 C 3.84375,-3.25 3.5,-2.90625 3.5,-2.796875 c 0,0.0625 0.03125,0.0625 0.046875,0.0625 0.421875,0.078125 0.625,0.265625 1.140625,1.453125 0.453125,1.046875 0.71875,1.5 1.296875,1.5 1.21875,0 2.359375,-1.21875 2.359375,-1.4375 0,-0.078125 -0.078125,-0.078125 -0.109375,-0.078125 -0.125,0 -0.515625,0.140625 -0.71875,0.421875 -0.15625,0.234375 -0.375,0.546875 -0.859375,0.546875 -0.515625,0 -0.828125,-0.703125 -1.15625,-1.484375 -0.21875,-0.5 -0.390625,-0.875 -0.625,-1.140625 1.4375,-0.53125 2.421875,-1.578125 2.421875,-2.609375 0,-1.25 -1.671875,-1.25 -3.1875,-1.25 -0.984375,0 -1.546875,0 -2.390625,0.359375 -1.328125,0.59375 -1.515625,1.421875 -1.515625,1.5 0,0.0625 0.046875,0.078125 0.109375,0.078125 0.15625,0 0.390625,-0.140625 0.46875,-0.1875 0.203125,-0.140625 0.234375,-0.203125 0.296875,-0.390625 0.140625,-0.40625 0.421875,-0.75 1.671875,-0.8125 -0.046875,0.609375 -0.140625,1.546875 -0.484375,3 C 2,-2.15625 1.640625,-1.0625 1.203125,0.015625 c -0.0625,0.109375 -0.0625,0.125 -0.0625,0.140625 0,0.0625 0.078125,0.0625 0.109375,0.0625 0.203125,0 0.609375,-0.234375 0.71875,-0.421875 0.03125,-0.0625 1.296875,-2.875 1.59375,-6.0625 z m 0,0"
                     style="stroke:none;stroke-width:0" />
                </g>
              </g>
              <g
                 id="id-c0786503-f166-44e0-9521-61dfc8a9ef16"
                 style="fill:#000000;fill-opacity:1;stroke-width:0">
                <g
                   id="g1115"
                   style="stroke-width:0"
                   transform="translate(157.156,136.259)">
                  <path
                     inkscape:connector-curvature="0"
                     id="id-0063c934-a004-414e-8190-9812e1d28c94"
                     d="M 1.96875,-4.625 C 1.96875,-4.640625 2,-4.734375 2,-4.734375 2,-4.78125 1.96875,-4.84375 1.875,-4.84375 c -0.140625,0 -0.71875,0.0625 -0.890625,0.078125 -0.046875,0 -0.140625,0.015625 -0.140625,0.15625 0,0.09375 0.09375,0.09375 0.171875,0.09375 0.34375,0 0.34375,0.0625 0.34375,0.109375 0,0.046875 -0.015625,0.09375 -0.03125,0.15625 l -0.875,3.4375 C 0.4375,-0.734375 0.4375,-0.65625 0.4375,-0.59375 c 0,0.453125 0.390625,0.65625 0.71875,0.65625 0.171875,0 0.390625,-0.046875 0.5625,-0.359375 C 1.875,-0.5625 1.96875,-0.96875 1.96875,-1 c 0,-0.09375 -0.09375,-0.09375 -0.109375,-0.09375 -0.109375,0 -0.125,0.046875 -0.140625,0.171875 C 1.625,-0.578125 1.484375,-0.125 1.1875,-0.125 1,-0.125 0.953125,-0.296875 0.953125,-0.46875 0.953125,-0.546875 0.96875,-0.671875 1,-0.75 Z m 0,0"
                     style="stroke:none;stroke-width:0" />
                </g>
              </g>
            </g>
          </g>
          <g
             id="g2399"
             style="stroke-width:0"
             ns1:jacobian_sqrt="0.377503"
             ns1:inkscapeversion="1.0.1"
             ns1:alignment="middle center"
             ns1:scale="0.28312813782034457"
             ns1:preamble="C:\Users\Administrator\AppData\Roaming\inkscape\extensions\textext\default_packages.tex"
             ns1:text="$\mathcal{R}_r$"
             ns1:pdfconverter="inkscape"
             ns1:texconverter="pdflatex"
             ns1:version="1.2.0"
             transform="matrix(0.377503,0,0,0.377503,51.2345,33.0588)">
            <defs
               id="id-26323146-abdb-4c3e-aa9c-75207226cebb">
              <g
                 style="stroke-width:0"
                 id="id-ac294dab-3b21-4a15-bb4e-d5a4cc0c10af">
                <symbol
                   style="overflow:visible;stroke-width:0"
                   id="id-3e2506db-1892-44c3-b84d-029f5a708164"
                   overflow="visible">
                  <path
                     inkscape:connector-curvature="0"
                     id="id-bcd31091-0ccc-46ed-83d5-dcb5a8bd25e3"
                     d=""
                     style="stroke:none;stroke-width:0" />
                </symbol>
                <symbol
                   style="overflow:visible;stroke-width:0"
                   id="id-83aa568b-bba7-4218-87e3-7732693fdffa"
                   overflow="visible">
                  <path
                     inkscape:connector-curvature="0"
                     id="id-82e7e5e5-5302-4bf3-b664-166e1d298eae"
                     d="m 4.03125,-6.265625 c 1.921875,0 2.421875,0.46875 2.421875,1.125 0,0.609375 -0.484375,1.8125 -2.125,1.875 C 3.84375,-3.25 3.5,-2.90625 3.5,-2.796875 c 0,0.0625 0.03125,0.0625 0.046875,0.0625 0.421875,0.078125 0.625,0.265625 1.140625,1.453125 0.453125,1.046875 0.71875,1.5 1.296875,1.5 1.21875,0 2.359375,-1.21875 2.359375,-1.4375 0,-0.078125 -0.078125,-0.078125 -0.109375,-0.078125 -0.125,0 -0.515625,0.140625 -0.71875,0.421875 -0.15625,0.234375 -0.375,0.546875 -0.859375,0.546875 -0.515625,0 -0.828125,-0.703125 -1.15625,-1.484375 -0.21875,-0.5 -0.390625,-0.875 -0.625,-1.140625 1.4375,-0.53125 2.421875,-1.578125 2.421875,-2.609375 0,-1.25 -1.671875,-1.25 -3.1875,-1.25 -0.984375,0 -1.546875,0 -2.390625,0.359375 -1.328125,0.59375 -1.515625,1.421875 -1.515625,1.5 0,0.0625 0.046875,0.078125 0.109375,0.078125 0.15625,0 0.390625,-0.140625 0.46875,-0.1875 0.203125,-0.140625 0.234375,-0.203125 0.296875,-0.390625 0.140625,-0.40625 0.421875,-0.75 1.671875,-0.8125 -0.046875,0.609375 -0.140625,1.546875 -0.484375,3 C 2,-2.15625 1.640625,-1.0625 1.203125,0.015625 c -0.0625,0.109375 -0.0625,0.125 -0.0625,0.140625 0,0.0625 0.078125,0.0625 0.109375,0.0625 0.203125,0 0.609375,-0.234375 0.71875,-0.421875 0.03125,-0.0625 1.296875,-2.875 1.59375,-6.0625 z m 0,0"
                     style="stroke:none;stroke-width:0" />
                </symbol>
                <symbol
                   style="overflow:visible;stroke-width:0"
                   id="id-fc06e0a9-2e3b-40d7-96ad-ae2611126f44"
                   overflow="visible">
                  <path
                     inkscape:connector-curvature="0"
                     id="id-351d3c6d-aa3a-4d4f-8fa2-b14f89fac5ac"
                     d=""
                     style="stroke:none;stroke-width:0" />
                </symbol>
                <symbol
                   style="overflow:visible;stroke-width:0"
                   id="id-345f164f-8089-413d-9dc8-3ab95ab3ba76"
                   overflow="visible">
                  <path
                     inkscape:connector-curvature="0"
                     id="id-d8ab2580-55b3-4774-b7cd-f8e34304fc3e"
                     d="m 1.640625,-1.40625 c 0,-0.046875 0.171875,-0.671875 0.171875,-0.703125 0.015625,-0.0625 0.21875,-0.40625 0.453125,-0.578125 0.0625,-0.046875 0.25,-0.1875 0.5625,-0.1875 0.0625,0 0.234375,0 0.375,0.09375 -0.21875,0.0625 -0.296875,0.265625 -0.296875,0.390625 0,0.140625 0.109375,0.25 0.265625,0.25 0.171875,0 0.390625,-0.125 0.390625,-0.421875 0,-0.359375 -0.375,-0.515625 -0.734375,-0.515625 -0.359375,0 -0.671875,0.15625 -0.984375,0.5 -0.125,-0.421875 -0.546875,-0.5 -0.71875,-0.5 -0.25,0 -0.421875,0.171875 -0.546875,0.359375 -0.15625,0.265625 -0.25,0.671875 -0.25,0.71875 0,0.078125 0.09375,0.078125 0.125,0.078125 0.09375,0 0.09375,-0.015625 0.140625,-0.203125 0.109375,-0.421875 0.25,-0.75 0.515625,-0.75 0.1875,0 0.234375,0.15625 0.234375,0.34375 0,0.125 -0.0625,0.390625 -0.125,0.578125 -0.046875,0.1875 -0.109375,0.46875 -0.140625,0.625 L 0.84375,-0.4375 C 0.828125,-0.34375 0.78125,-0.171875 0.78125,-0.15625 0.78125,0 0.90625,0.0625 1.015625,0.0625 1.125,0.0625 1.265625,0 1.3125,-0.125 1.328125,-0.171875 1.40625,-0.484375 1.453125,-0.65625 Z m 0,0"
                     style="stroke:none;stroke-width:0" />
                </symbol>
              </g>
            </defs>
            <g
               style="stroke-width:0"
               transform="translate(-148.915,-127.953)"
               id="id-39dbaf82-92b9-4351-b295-992d212dfb6b">
              <g
                 id="id-a1331796-cb4b-43a5-a910-7904d127cb4a"
                 style="fill:#000000;fill-opacity:1;stroke-width:0">
                <g
                   id="g1245"
                   style="stroke-width:0"
                   transform="translate(148.712,134.765)">
                  <path
                     inkscape:connector-curvature="0"
                     id="id-bc9c787f-664b-431d-babc-a89f4c7e0bc4"
                     d="m 4.03125,-6.265625 c 1.921875,0 2.421875,0.46875 2.421875,1.125 0,0.609375 -0.484375,1.8125 -2.125,1.875 C 3.84375,-3.25 3.5,-2.90625 3.5,-2.796875 c 0,0.0625 0.03125,0.0625 0.046875,0.0625 0.421875,0.078125 0.625,0.265625 1.140625,1.453125 0.453125,1.046875 0.71875,1.5 1.296875,1.5 1.21875,0 2.359375,-1.21875 2.359375,-1.4375 0,-0.078125 -0.078125,-0.078125 -0.109375,-0.078125 -0.125,0 -0.515625,0.140625 -0.71875,0.421875 -0.15625,0.234375 -0.375,0.546875 -0.859375,0.546875 -0.515625,0 -0.828125,-0.703125 -1.15625,-1.484375 -0.21875,-0.5 -0.390625,-0.875 -0.625,-1.140625 1.4375,-0.53125 2.421875,-1.578125 2.421875,-2.609375 0,-1.25 -1.671875,-1.25 -3.1875,-1.25 -0.984375,0 -1.546875,0 -2.390625,0.359375 -1.328125,0.59375 -1.515625,1.421875 -1.515625,1.5 0,0.0625 0.046875,0.078125 0.109375,0.078125 0.15625,0 0.390625,-0.140625 0.46875,-0.1875 0.203125,-0.140625 0.234375,-0.203125 0.296875,-0.390625 0.140625,-0.40625 0.421875,-0.75 1.671875,-0.8125 -0.046875,0.609375 -0.140625,1.546875 -0.484375,3 C 2,-2.15625 1.640625,-1.0625 1.203125,0.015625 c -0.0625,0.109375 -0.0625,0.125 -0.0625,0.140625 0,0.0625 0.078125,0.0625 0.109375,0.0625 0.203125,0 0.609375,-0.234375 0.71875,-0.421875 0.03125,-0.0625 1.296875,-2.875 1.59375,-6.0625 z m 0,0"
                     style="stroke:none;stroke-width:0" />
                </g>
              </g>
              <g
                 id="id-7e4ceed1-1168-479a-a316-0060d1acd25d"
                 style="fill:#000000;fill-opacity:1;stroke-width:0">
                <g
                   id="g1249"
                   style="stroke-width:0"
                   transform="translate(157.156,136.259)">
                  <path
                     inkscape:connector-curvature="0"
                     id="id-dbfb5c59-c58a-4235-a25f-c76c37eea54c"
                     d="m 1.640625,-1.40625 c 0,-0.046875 0.171875,-0.671875 0.171875,-0.703125 0.015625,-0.0625 0.21875,-0.40625 0.453125,-0.578125 0.0625,-0.046875 0.25,-0.1875 0.5625,-0.1875 0.0625,0 0.234375,0 0.375,0.09375 -0.21875,0.0625 -0.296875,0.265625 -0.296875,0.390625 0,0.140625 0.109375,0.25 0.265625,0.25 0.171875,0 0.390625,-0.125 0.390625,-0.421875 0,-0.359375 -0.375,-0.515625 -0.734375,-0.515625 -0.359375,0 -0.671875,0.15625 -0.984375,0.5 -0.125,-0.421875 -0.546875,-0.5 -0.71875,-0.5 -0.25,0 -0.421875,0.171875 -0.546875,0.359375 -0.15625,0.265625 -0.25,0.671875 -0.25,0.71875 0,0.078125 0.09375,0.078125 0.125,0.078125 0.09375,0 0.09375,-0.015625 0.140625,-0.203125 0.109375,-0.421875 0.25,-0.75 0.515625,-0.75 0.1875,0 0.234375,0.15625 0.234375,0.34375 0,0.125 -0.0625,0.390625 -0.125,0.578125 -0.046875,0.1875 -0.109375,0.46875 -0.140625,0.625 L 0.84375,-0.4375 C 0.828125,-0.34375 0.78125,-0.171875 0.78125,-0.15625 0.78125,0 0.90625,0.0625 1.015625,0.0625 1.125,0.0625 1.265625,0 1.3125,-0.125 1.328125,-0.171875 1.40625,-0.484375 1.453125,-0.65625 Z m 0,0"
                     style="stroke:none;stroke-width:0" />
                </g>
              </g>
            </g>
          </g>
        </g>
      </g>
    </g>
  </g>
</svg>
