<?xml version="1.0" encoding="UTF-8" standalone="no"?>
<!DOCTYPE svg PUBLIC "-//W3C//DTD SVG 1.1//EN"
 "http://www.w3.org/Graphics/SVG/1.1/DTD/svg11.dtd">
<!-- Generated by graphviz version 2.46.1 (20210213.1702)
 -->
<!-- Title: classes Pages: 1 -->
<svg width="599pt" height="379pt"
 viewBox="0.00 0.00 599.00 379.00" xmlns="http://www.w3.org/2000/svg" xmlns:xlink="http://www.w3.org/1999/xlink">
<g id="graph0" class="graph" transform="scale(1 1) rotate(0) translate(4 375)">
<title>classes</title>
<polygon fill="white" stroke="transparent" points="-4,4 -4,-375 595,-375 595,4 -4,4"/>
<!-- 0 -->
<g id="node1" class="node">
<title>0</title>
<polygon fill="none" stroke="black" points="0,-248.5 0,-333.5 215,-333.5 215,-248.5 0,-248.5"/>
<text text-anchor="middle" x="107.5" y="-318.3" font-family="Times New Roman,serif" font-size="14.00">PrintInfoMixin</text>
<polyline fill="none" stroke="black" points="0,-310.5 215,-310.5 "/>
<polyline fill="none" stroke="black" points="0,-286.5 215,-286.5 "/>
<text text-anchor="start" x="8" y="-271.3" font-family="Times New Roman,serif" font-size="14.00">(abc.abstractmethod) get_proplist()</text>
<text text-anchor="start" x="8" y="-256.3" font-family="Times New Roman,serif" font-size="14.00">__str__()</text>
</g>
<!-- 1 -->
<g id="node2" class="node">
<title>1</title>
<polygon fill="none" stroke="black" points="82,-45 82,-115 185,-115 185,-45 82,-45"/>
<text text-anchor="middle" x="133.5" y="-99.8" font-family="Times New Roman,serif" font-size="14.00">PrintableObject</text>
<polyline fill="none" stroke="black" points="82,-92 185,-92 "/>
<polyline fill="none" stroke="black" points="82,-68 185,-68 "/>
<text text-anchor="middle" x="133.5" y="-52.8" font-family="Times New Roman,serif" font-size="14.00"> </text>
</g>
<!-- 1&#45;&gt;0 -->
<g id="edge1" class="edge">
<title>1&#45;&gt;0</title>
<path fill="none" stroke="black" d="M129.26,-115.04C125.1,-148.49 118.7,-199.96 113.92,-238.43"/>
<polygon fill="none" stroke="black" points="110.44,-238.05 112.67,-248.41 117.38,-238.92 110.44,-238.05"/>
</g>
<!-- 4 -->
<g id="node5" class="node">
<title>4</title>
<polygon fill="none" stroke="black" points="233,-211.5 233,-370.5 478,-370.5 478,-211.5 233,-211.5"/>
<text text-anchor="middle" x="355.5" y="-355.3" font-family="Times New Roman,serif" font-size="14.00">Object</text>
<polyline fill="none" stroke="black" points="233,-347.5 478,-347.5 "/>
<text text-anchor="start" x="241" y="-332.3" font-family="Times New Roman,serif" font-size="14.00">(class) modifiable_properties : tuple[str]</text>
<text text-anchor="start" x="241" y="-317.3" font-family="Times New Roman,serif" font-size="14.00">name : str</text>
<text text-anchor="start" x="241" y="-302.3" font-family="Times New Roman,serif" font-size="14.00">property_set</text>
<polyline fill="none" stroke="black" points="233,-294.5 478,-294.5 "/>
<text text-anchor="start" x="241" y="-279.3" font-family="Times New Roman,serif" font-size="14.00">get_property(k, v_f)</text>
<text text-anchor="start" x="241" y="-264.3" font-family="Times New Roman,serif" font-size="14.00">get_proplist()</text>
<text text-anchor="start" x="241" y="-249.3" font-family="Times New Roman,serif" font-size="14.00">change_params(_filter=True, **kwargs)</text>
<text text-anchor="start" x="241" y="-234.3" font-family="Times New Roman,serif" font-size="14.00">update_propset(**kwargs)</text>
<text text-anchor="start" x="241" y="-219.3" font-family="Times New Roman,serif" font-size="14.00">(classmethod) filter_properties(propdict)</text>
</g>
<!-- 1&#45;&gt;4 -->
<g id="edge2" class="edge">
<title>1&#45;&gt;4</title>
<path fill="none" stroke="black" d="M169.66,-115.04C195.36,-139.24 231.08,-172.87 264.35,-204.18"/>
<polygon fill="none" stroke="black" points="262.16,-206.94 271.84,-211.24 266.96,-201.84 262.16,-206.94"/>
</g>
<!-- 2 -->
<g id="node3" class="node">
<title>2</title>
<polygon fill="none" stroke="black" points="500,-45 500,-115 591,-115 591,-45 500,-45"/>
<text text-anchor="middle" x="545.5" y="-99.8" font-family="Times New Roman,serif" font-size="14.00" fill="red">PropertyLost</text>
<polyline fill="none" stroke="black" points="500,-92 591,-92 "/>
<polyline fill="none" stroke="black" points="500,-68 591,-68 "/>
<text text-anchor="middle" x="545.5" y="-52.8" font-family="Times New Roman,serif" font-size="14.00" fill="red"> </text>
</g>
<!-- 3 -->
<g id="node4" class="node">
<title>3</title>
<polygon fill="none" stroke="black" points="229,-0.5 229,-159.5 482,-159.5 482,-0.5 229,-0.5"/>
<text text-anchor="middle" x="355.5" y="-144.3" font-family="Times New Roman,serif" font-size="14.00">PropertySet</text>
<polyline fill="none" stroke="black" points="229,-136.5 482,-136.5 "/>
<text text-anchor="start" x="237" y="-121.3" font-family="Times New Roman,serif" font-size="14.00">__required_props: set[str]</text>
<polyline fill="none" stroke="black" points="229,-113.5 482,-113.5 "/>
<text text-anchor="start" x="237" y="-98.3" font-family="Times New Roman,serif" font-size="14.00">__init__(props=(), *args, **kwargs)</text>
<text text-anchor="start" x="237" y="-83.3" font-family="Times New Roman,serif" font-size="14.00">get_strictly(key)</text>
<text text-anchor="start" x="237" y="-68.3" font-family="Times New Roman,serif" font-size="14.00">change_params(**kwargs)</text>
<text text-anchor="start" x="237" y="-53.3" font-family="Times New Roman,serif" font-size="14.00">reset_required(Union[tuple[str],str] props)</text>
<text text-anchor="start" x="237" y="-38.3" font-family="Times New Roman,serif" font-size="14.00">add_required(props)</text>
<text text-anchor="start" x="237" y="-23.3" font-family="Times New Roman,serif" font-size="14.00">del_required(props)</text>
<text text-anchor="start" x="237" y="-8.3" font-family="Times New Roman,serif" font-size="14.00">clear_required()</text>
</g>
<!-- 3&#45;&gt;4 -->
<g id="edge3" class="edge">
<title>3&#45;&gt;4</title>
<path fill="none" stroke="black" d="M355.5,-159.72C355.5,-172.65 355.5,-186.15 355.5,-199.34"/>
<polygon fill="black" stroke="black" points="355.5,-199.35 359.5,-205.35 355.5,-211.35 351.5,-205.35 355.5,-199.35"/>
<text text-anchor="middle" x="391.5" y="-181.8" font-family="Times New Roman,serif" font-size="14.00" fill="green">property_set</text>
</g>
</g>
</svg>
